<svg width="32" height="32" viewBox="0 0 32 32" fill="none" xmlns="http://www.w3.org/2000/svg">
<path opacity="0.1" fill-rule="evenodd" clip-rule="evenodd" d="M0 16C0 7.16344 7.16344 0 16 0C24.8366 0 32 7.16344 32 16C32 24.8366 24.8366 32 16 32C7.16344 32 0 24.8366 0 16Z" fill="white"/>
<path d="M20.4001 8H18.0001C16.9392 8 15.9218 8.42143 15.1717 9.17157C14.4215 9.92172 14.0001 10.9391 14.0001 12V14.4H11.6001V17.6H14.0001V24H17.2001V17.6H19.6001L20.4001 14.4H17.2001V12C17.2001 11.7878 17.2844 11.5843 17.4344 11.4343C17.5844 11.2843 17.7879 11.2 18.0001 11.2H20.4001V8Z" fill="white"/>
</svg>
