<svg width="6" height="4" viewBox="0 0 6 4" fill="none" xmlns="http://www.w3.org/2000/svg">
<path d="M1.23564 2.86462V3.4134H1.1225V3.082L0.982632 3.23523H0.950561L0.808911 3.082V3.4134H0.69577V2.86462H0.734078L0.966596 3.10694L1.19733 2.86462H1.23564ZM1.54656 2.99202C1.58665 2.99202 1.62317 3.00182 1.65613 3.02053C1.6891 3.04013 1.71582 3.06596 1.73631 3.09892C1.7568 3.13189 1.7666 3.16841 1.7666 3.20939C1.7666 3.25037 1.7568 3.2869 1.73631 3.31897C1.71582 3.35193 1.6891 3.37777 1.65613 3.39648C1.62317 3.41608 1.58665 3.42498 1.54656 3.42498C1.50736 3.42498 1.47083 3.41518 1.43698 3.39648C1.40402 3.37688 1.37729 3.35104 1.3568 3.31897C1.33631 3.2869 1.32651 3.24948 1.32651 3.20939C1.32651 3.16841 1.33631 3.13189 1.3568 3.09892C1.3764 3.06596 1.40313 3.04013 1.43698 3.02053C1.46994 3.00093 1.50647 2.99202 1.54656 2.99202ZM1.54656 3.0918C1.52696 3.0918 1.50914 3.09625 1.49221 3.10516C1.47529 3.11407 1.46192 3.12743 1.45212 3.14525C1.44232 3.16218 1.43698 3.18356 1.43698 3.2085C1.43698 3.23345 1.44232 3.25483 1.45212 3.27175C1.46192 3.28868 1.47529 3.30204 1.49221 3.31095C1.50914 3.31986 1.52696 3.32432 1.54656 3.32432C1.56616 3.32432 1.58397 3.31986 1.6009 3.31095C1.61783 3.30204 1.63119 3.28868 1.64188 3.27175C1.65257 3.25483 1.65703 3.23345 1.65703 3.2085C1.65703 3.18356 1.65168 3.16218 1.64188 3.14525C1.63119 3.12832 1.61783 3.11496 1.6009 3.10516C1.58397 3.09625 1.56616 3.0918 1.54656 3.0918ZM1.68553 2.83166L1.57417 2.94747H1.49132L1.57685 2.83166H1.68553ZM2.00268 2.99202C2.02496 2.99202 2.04723 2.99736 2.07039 3.00716C2.09355 3.01785 2.11226 3.03122 2.12741 3.04903V3.00271H2.23075V3.40271C2.23075 3.44904 2.22006 3.48913 2.19957 3.5212C2.17908 3.55327 2.15146 3.57821 2.11761 3.59514C2.08375 3.61207 2.04634 3.62098 2.00536 3.62098C1.96883 3.62098 1.93943 3.61563 1.91627 3.60494C1.89311 3.59425 1.87173 3.58178 1.85124 3.56752V3.47042C1.86371 3.47844 1.87707 3.48645 1.89043 3.49447C1.90469 3.50338 1.91983 3.51051 1.93765 3.51674C1.95547 3.52298 1.97596 3.52565 1.99912 3.52565C2.02318 3.52565 2.04545 3.5212 2.06505 3.5114C2.08465 3.50249 2.09979 3.48913 2.11137 3.47309C2.12206 3.45616 2.1283 3.43746 2.1283 3.41697V3.3457C2.11672 3.36797 2.0989 3.38668 2.07663 3.40271C2.05346 3.41875 2.02763 3.42677 1.99734 3.42677C1.96438 3.42677 1.93409 3.41875 1.90558 3.40182C1.87796 3.38489 1.85569 3.36084 1.83876 3.32877C1.82184 3.2967 1.81382 3.25839 1.81382 3.21296C1.81382 3.16752 1.82184 3.12832 1.83965 3.09625C1.85658 3.06418 1.87974 3.03834 1.90914 3.02142C1.93854 3.0036 1.97061 2.99469 2.00536 2.99469L2.00268 2.99202ZM2.02407 3.09358C2.00268 3.09358 1.98398 3.09892 1.96883 3.11051C1.95369 3.1212 1.94121 3.13634 1.93231 3.15327C1.9234 3.17108 1.91894 3.18979 1.91894 3.21028C1.91894 3.24146 1.92874 3.2673 1.94745 3.28868C1.96616 3.31006 1.9911 3.32075 2.02139 3.32075C2.0401 3.32075 2.05703 3.3163 2.07306 3.3065C2.0891 3.2967 2.10246 3.28334 2.11226 3.26552C2.12206 3.2477 2.12741 3.22632 2.12741 3.20137V3.14258C2.11315 3.12654 2.09712 3.11407 2.08019 3.10516C2.06326 3.09625 2.04456 3.0918 2.02407 3.0918V3.09358ZM2.56037 2.99202C2.59601 2.99202 2.62808 3.00093 2.65659 3.01874C2.68599 3.03656 2.70826 3.06151 2.72608 3.09358C2.743 3.12654 2.75191 3.16485 2.75191 3.21028C2.75191 3.25572 2.743 3.29492 2.72608 3.3261C2.70915 3.35817 2.68688 3.38222 2.65837 3.39915C2.63075 3.41608 2.60046 3.42409 2.5675 3.42409C2.53721 3.42409 2.51048 3.41608 2.48821 3.40004C2.46505 3.384 2.44812 3.3653 2.43654 3.34302V3.41251H2.3332V2.82721H2.43654V3.04814C2.45169 3.03122 2.47039 3.01696 2.49267 3.00627C2.51494 2.99558 2.5381 2.99113 2.56037 2.99113V2.99202ZM2.53899 3.09358C2.51939 3.09358 2.50068 3.09803 2.48376 3.10694C2.46683 3.11585 2.4508 3.12832 2.43654 3.14436V3.20316C2.43565 3.2281 2.441 3.24948 2.4508 3.2673C2.4606 3.28512 2.47396 3.29848 2.48999 3.30828C2.50603 3.31808 2.52385 3.32253 2.54166 3.32253C2.57285 3.32253 2.5969 3.31184 2.61561 3.29046C2.63432 3.26908 2.64322 3.24325 2.64322 3.21206C2.64322 3.19157 2.63877 3.17198 2.62986 3.15505C2.62095 3.13723 2.60937 3.12298 2.59334 3.11229C2.5773 3.1016 2.55948 3.09536 2.5381 3.09536L2.53899 3.09358ZM3.0165 2.99202C3.05659 2.99202 3.09312 3.00182 3.12608 3.02053C3.15904 3.04013 3.18577 3.06596 3.20626 3.09892C3.22675 3.13189 3.23655 3.16841 3.23655 3.20939C3.23655 3.25037 3.22675 3.2869 3.20626 3.31897C3.18577 3.35193 3.15904 3.37777 3.12608 3.39648C3.09312 3.41608 3.05659 3.42498 3.0165 3.42498C2.9773 3.42498 2.94078 3.41518 2.90692 3.39648C2.87396 3.37688 2.84724 3.35104 2.82674 3.31897C2.80625 3.2869 2.79646 3.24948 2.79646 3.20939C2.79646 3.16841 2.80625 3.13189 2.82674 3.09892C2.84634 3.06596 2.87307 3.04013 2.90692 3.02053C2.93989 3.00093 2.97641 2.99202 3.0165 2.99202ZM3.0165 3.0918C2.9969 3.0918 2.97908 3.09625 2.96216 3.10516C2.94523 3.11407 2.93187 3.12743 2.92207 3.14525C2.91227 3.16218 2.90692 3.18356 2.90692 3.2085C2.90692 3.23345 2.91227 3.25483 2.92207 3.27175C2.93187 3.28868 2.94523 3.30204 2.96216 3.31095C2.97908 3.31986 2.9969 3.32432 3.0165 3.32432C3.0361 3.32432 3.05392 3.31986 3.07084 3.31095C3.08777 3.30204 3.10113 3.28868 3.11183 3.27175C3.12252 3.25483 3.12697 3.23345 3.12697 3.2085C3.12697 3.18356 3.12162 3.16218 3.11183 3.14525C3.10113 3.12832 3.08777 3.11496 3.07084 3.10516C3.05392 3.09625 3.0361 3.0918 3.0165 3.0918ZM2.9292 2.83166L3.0165 2.89224L3.01205 2.94658L2.92474 2.88511L2.9292 2.83077V2.83166ZM3.41294 3.00271V3.05438C3.42541 3.03834 3.44056 3.02409 3.45838 3.01162C3.47619 2.99915 3.49847 2.99202 3.52608 2.99202C3.55459 2.99202 3.58043 2.99825 3.60448 3.01162C3.62764 3.02498 3.64635 3.04458 3.65882 3.07131C3.67486 3.04903 3.69446 3.03033 3.71584 3.01518C3.73722 3.00004 3.76306 2.99202 3.79156 2.99202C3.81918 2.99202 3.84412 2.99825 3.86729 3.01073C3.89045 3.0232 3.90827 3.04191 3.92252 3.06685C3.93678 3.0918 3.94301 3.12298 3.94301 3.16039V3.41251H3.83967L3.83878 3.17465C3.83878 3.14703 3.83165 3.12654 3.8174 3.11318C3.80314 3.09981 3.78444 3.09269 3.76127 3.09269C3.74346 3.09269 3.72831 3.09803 3.71495 3.10961C3.70158 3.1203 3.69 3.13367 3.67842 3.14881V3.41251H3.57508L3.57419 3.17465C3.57419 3.14703 3.56706 3.12654 3.55281 3.11318C3.53855 3.09981 3.51985 3.09269 3.49757 3.09269C3.48065 3.09269 3.46461 3.09803 3.45125 3.10872C3.43789 3.11941 3.42541 3.13189 3.41472 3.14525V3.41251H3.31138V3.00182H3.41472L3.41294 3.00271ZM4.22631 2.99202C4.2664 2.99202 4.30293 3.00182 4.33589 3.02053C4.36885 3.04013 4.39558 3.06596 4.41607 3.09892C4.43656 3.13189 4.44636 3.16841 4.44636 3.20939C4.44636 3.25037 4.43656 3.2869 4.41607 3.31897C4.39558 3.35193 4.36885 3.37777 4.33589 3.39648C4.30293 3.41608 4.2664 3.42498 4.22631 3.42498C4.18711 3.42498 4.15059 3.41518 4.11673 3.39648C4.08377 3.37688 4.05704 3.35104 4.03655 3.31897C4.01606 3.2869 4.00626 3.24948 4.00626 3.20939C4.00626 3.16841 4.01606 3.13189 4.03655 3.09892C4.05615 3.06596 4.08288 3.04013 4.11673 3.02053C4.1497 3.00093 4.18622 2.99202 4.22631 2.99202ZM4.22631 3.0918C4.20671 3.0918 4.18889 3.09625 4.17197 3.10516C4.15504 3.11407 4.14168 3.12743 4.13188 3.14525C4.12208 3.16218 4.11673 3.18356 4.11673 3.2085C4.11673 3.23345 4.12208 3.25483 4.13188 3.27175C4.14168 3.28868 4.15504 3.30204 4.17197 3.31095C4.18889 3.31986 4.20671 3.32432 4.22631 3.32432C4.24591 3.32432 4.26373 3.31986 4.28065 3.31095C4.29758 3.30204 4.31094 3.28868 4.32163 3.27175C4.33232 3.25483 4.33678 3.23345 4.33678 3.2085C4.33678 3.18356 4.33143 3.16218 4.32163 3.14525C4.31094 3.12832 4.29758 3.11496 4.28065 3.10516C4.26373 3.09625 4.24591 3.0918 4.22631 3.0918ZM4.58444 3.00271L4.70115 3.26463L4.81518 3.00271H4.93278L4.63433 3.6085H4.51763L4.64146 3.38311L4.46417 3.00271H4.58444ZM5.14302 2.99202C5.16529 2.99202 5.18757 2.99736 5.21073 3.00716C5.23389 3.01785 5.2526 3.03122 5.26774 3.04903V3.00271H5.37109V3.4134H5.26774V3.34391C5.25616 3.36619 5.23835 3.38489 5.21607 3.40093C5.19291 3.41697 5.16708 3.42498 5.13679 3.42498C5.10382 3.42498 5.07353 3.41697 5.04503 3.40004C5.01741 3.38311 4.99514 3.35906 4.97821 3.32699C4.96128 3.29492 4.95327 3.25661 4.95327 3.21117C4.95327 3.16574 4.96128 3.12654 4.9791 3.09447C4.99603 3.0624 5.01919 3.03656 5.04859 3.01964C5.07799 3.00182 5.11006 2.99291 5.1448 2.99291L5.14302 2.99202ZM5.1644 3.09269C5.14302 3.09269 5.12431 3.09803 5.10917 3.10961C5.09402 3.1203 5.08155 3.13545 5.07264 3.15327C5.06373 3.17108 5.05928 3.19068 5.05928 3.21117C5.05928 3.24235 5.06908 3.26819 5.08779 3.28957C5.1065 3.31095 5.13144 3.32253 5.16173 3.32253C5.18044 3.32253 5.19737 3.31808 5.2134 3.30739C5.22944 3.29759 5.2428 3.28423 5.2526 3.26641C5.2624 3.24859 5.26774 3.22721 5.26774 3.20227V3.14347C5.25349 3.12743 5.23745 3.11496 5.22053 3.10605C5.2036 3.09714 5.18489 3.0918 5.1644 3.0918V3.09269ZM5.31407 2.83166L5.20271 2.94747H5.11986L5.20538 2.83166H5.31407ZM5.58757 2.70248C5.61073 2.70248 5.63122 2.70694 5.65082 2.71496C5.67042 2.72297 5.68735 2.73456 5.7016 2.74881C5.71585 2.76306 5.72744 2.77999 5.73545 2.7987C5.74347 2.81741 5.74793 2.8379 5.74793 2.86017C5.74793 2.88155 5.74347 2.90204 5.73545 2.92075C5.72744 2.93946 5.71675 2.95638 5.7016 2.97064C5.68735 2.98489 5.67042 2.99647 5.65082 3.00449C5.63122 3.01251 5.61073 3.01696 5.58757 3.01696C5.56441 3.01696 5.54392 3.01251 5.52432 3.00449C5.50472 2.99647 5.48779 2.98489 5.47354 2.97064C5.45928 2.95638 5.4477 2.93946 5.43968 2.92075C5.43167 2.90204 5.4281 2.88155 5.4281 2.86017C5.4281 2.83879 5.43256 2.8183 5.43968 2.7987C5.4477 2.77999 5.45839 2.76306 5.47354 2.74881C5.48779 2.73456 5.50472 2.72297 5.52432 2.71496C5.54392 2.70694 5.56441 2.70248 5.58757 2.70248ZM5.58757 2.73812C5.56352 2.73812 5.54302 2.74346 5.52521 2.75326C5.50739 2.76395 5.49314 2.77821 5.48334 2.79603C5.47354 2.81473 5.46819 2.83522 5.46819 2.85928C5.46819 2.88333 5.47354 2.90382 5.48334 2.92253C5.49314 2.94124 5.50739 2.95549 5.52521 2.96529C5.54302 2.97598 5.56441 2.98044 5.58757 2.98044C5.61162 2.98044 5.63211 2.97509 5.65082 2.96529C5.66864 2.9546 5.68289 2.94035 5.69269 2.92253C5.70249 2.90382 5.70784 2.88333 5.70784 2.85928C5.70784 2.83522 5.70249 2.81473 5.69269 2.79603C5.68289 2.77732 5.66864 2.76306 5.65082 2.75326C5.633 2.74257 5.61162 2.73812 5.58757 2.73812ZM5.60093 2.7791C5.61073 2.7791 5.62053 2.78088 5.62944 2.78444C5.63835 2.78801 5.64637 2.79335 5.6526 2.80137C5.65884 2.80939 5.66151 2.81919 5.66151 2.83077C5.66151 2.84502 5.65617 2.85661 5.64637 2.86462C5.63568 2.87264 5.62409 2.8771 5.61073 2.87799L5.66864 2.94035H5.62499L5.56886 2.87442V2.94035H5.53501V2.7791H5.60093ZM5.56886 2.81028V2.85126C5.57331 2.85304 5.57688 2.85393 5.58222 2.85393C5.58668 2.85482 5.59202 2.85482 5.59648 2.85482C5.60628 2.85482 5.6134 2.85304 5.61964 2.84859C5.62499 2.84502 5.62766 2.83879 5.62766 2.83166C5.62766 2.82364 5.62499 2.8183 5.61875 2.81473C5.61251 2.81117 5.60539 2.80939 5.59648 2.80939H5.56886V2.81028Z" fill="#373435"/>
<path d="M2.97641 2.27487V1.45081C2.97641 1.35014 2.97641 1.5782 3.00937 1.53009C3.04323 1.4811 3.09401 1.45704 3.16438 1.45704C3.20536 1.45704 3.24278 1.46773 3.27485 1.48911C3.27753 1.49089 3.34969 1.24769 3.52964 1.17909C3.58755 1.15682 3.65704 1.14613 3.739 1.14613C3.90025 1.14613 4.02408 1.19245 4.1096 1.2851C4.19513 1.37775 4.23789 1.51138 4.23789 1.68778V2.27576C4.23789 2.37643 4.22096 2.45126 4.18711 2.50026C4.15326 2.54925 4.10159 2.5742 4.0321 2.5742C3.96261 2.5742 3.91094 2.54925 3.87709 2.50026C3.84323 2.45126 3.82631 2.37643 3.82631 2.27576V1.8125C3.82631 1.69847 3.80938 1.6174 3.77463 1.5684C3.74078 1.52029 3.68377 1.49535 3.60537 1.49535C3.53053 1.49535 3.47619 1.52029 3.44056 1.57107C3.40492 1.62096 3.3871 1.70025 3.3871 1.80805V2.27665C3.3871 2.37732 3.37018 2.45215 3.33632 2.50115C3.30247 2.55015 3.2508 2.57509 3.18131 2.57509C3.11182 2.57509 3.06015 2.55015 3.0263 2.50115C2.99334 2.45215 2.97641 2.37732 2.97641 2.27665V2.27487Z" fill="#009675"/>
<path d="M2.12653 2.27486V1.4508C2.12653 1.35013 2.14345 1.2753 2.17641 1.22719C2.20938 1.1782 2.26105 1.15414 2.33143 1.15414C2.37241 1.15414 2.40982 1.16483 2.4419 1.18621C2.47397 1.20759 2.50248 1.24056 2.52742 1.28421C2.57107 1.2361 2.62185 1.20047 2.67976 1.1782C2.73767 1.15592 2.80715 1.14523 2.88912 1.14523C3.05036 1.14523 3.1742 1.19156 3.25972 1.28421C3.34524 1.37686 3.38801 1.51049 3.38801 1.68689V2.27486C3.38801 2.37553 3.37108 2.45037 3.33723 2.49936C3.30337 2.54836 3.2517 2.57331 3.18221 2.57331C3.11273 2.57331 3.06105 2.54836 3.0272 2.49936C2.99335 2.45037 2.97642 2.37553 2.97642 2.27486V1.81161C2.97642 1.69758 2.95949 1.61651 2.92475 1.56751C2.8909 1.5194 2.83388 1.49446 2.75548 1.49446C2.68065 1.49446 2.62631 1.5194 2.59067 1.57018C2.55504 1.62007 2.53722 1.69936 2.53722 1.80715V2.27575C2.53722 2.37642 2.52029 2.45126 2.48644 2.50026C2.45259 2.54925 2.40092 2.5742 2.33143 2.5742C2.26194 2.5742 2.21027 2.54925 2.17641 2.50026C2.14345 2.45126 2.12653 2.37642 2.12653 2.27575V2.27486Z" fill="#EC268F"/>
<path fill-rule="evenodd" clip-rule="evenodd" d="M2.28599 0.575073H2.35191C2.44724 0.575073 2.52474 0.652579 2.52474 0.747903V0.900243C2.52474 0.995567 2.44724 1.07307 2.35191 1.07307H2.28599C2.19067 1.07307 2.11316 0.995567 2.11316 0.900243V0.747903C2.11316 0.652579 2.19067 0.575073 2.28599 0.575073Z" fill="#EC268F"/>
<path fill-rule="evenodd" clip-rule="evenodd" d="M3.9929 0.566162H4.05882C4.15415 0.566162 4.23165 0.643668 4.23165 0.738992V0.891332C4.23165 0.986655 4.15415 1.06416 4.05882 1.06416H3.9929C3.89757 1.06416 3.82007 0.986655 3.82007 0.891332V0.738992C3.82007 0.643668 3.89757 0.566162 3.9929 0.566162Z" fill="#007062"/>
<path fill-rule="evenodd" clip-rule="evenodd" d="M3.02453 3.4624C3.05749 3.4624 3.08332 3.48913 3.08332 3.5212C3.08332 3.55416 3.0566 3.58 3.02453 3.58C2.99156 3.58 2.96573 3.55327 2.96573 3.5212C2.96573 3.48824 2.99246 3.4624 3.02453 3.4624Z" fill="#373435"/>
</svg>
