<svg width="32" height="32" viewBox="0 0 32 32" fill="none" xmlns="http://www.w3.org/2000/svg">
<rect width="32" height="32" rx="5" fill="#D60B7B"/>
<path d="M5.3054 18.8352V16.9354H3.40554V15.8203H5.3054V13.9205H6.42045V15.8203H8.32031V16.9354H6.42045V18.8352H5.3054ZM12.4165 20.0994C11.9052 20.0994 11.4506 20.0118 11.0529 19.8366C10.6576 19.6615 10.3439 19.4176 10.1119 19.1051C9.88222 18.7926 9.76148 18.4316 9.74964 18.022H11.0849C11.1014 18.3179 11.2352 18.5547 11.4862 18.7322C11.7395 18.9074 12.0484 18.995 12.413 18.995C12.8013 18.995 13.1209 18.8956 13.3718 18.6967C13.6228 18.4955 13.747 18.2339 13.7447 17.9119C13.747 17.5829 13.618 17.3142 13.3576 17.1058C13.0996 16.8975 12.7409 16.7933 12.2816 16.7933H11.6388V15.7777H12.2816C12.658 15.7777 12.9646 15.6806 13.2013 15.4865C13.4405 15.2924 13.5588 15.0367 13.5565 14.7195C13.5588 14.4141 13.4558 14.1679 13.2475 13.9808C13.0415 13.7914 12.7693 13.6967 12.4308 13.6967C12.0946 13.6967 11.8034 13.7855 11.5572 13.9631C11.311 14.1406 11.1819 14.3821 11.1701 14.6875H9.90234C9.91181 14.2803 10.029 13.9228 10.2539 13.6151C10.4788 13.3049 10.7807 13.0634 11.1594 12.8906C11.5406 12.7154 11.9667 12.6278 12.4379 12.6278C12.9232 12.6278 13.3446 12.719 13.7021 12.9013C14.0619 13.0812 14.3401 13.3239 14.5366 13.6293C14.7354 13.9347 14.8337 14.272 14.8313 14.6413C14.8337 15.0485 14.7141 15.3918 14.4727 15.6712C14.2312 15.9482 13.9128 16.1293 13.5174 16.2145V16.2713C14.0264 16.3447 14.4182 16.5341 14.6928 16.8395C14.9674 17.1449 15.1036 17.5249 15.1012 17.9794C15.1036 18.389 14.9888 18.7536 14.7567 19.0732C14.5247 19.3928 14.2063 19.6437 13.8015 19.826C13.3967 20.0083 12.935 20.0994 12.4165 20.0994ZM19.0083 20.1385C18.1324 20.1385 17.4458 19.8082 16.9487 19.1477C16.4539 18.4872 16.2065 17.5616 16.2065 16.3707C16.2089 15.1823 16.4574 14.2614 16.9522 13.608C17.4494 12.9545 18.1348 12.6278 19.0083 12.6278C19.8819 12.6278 20.5673 12.9557 21.0645 13.6115C21.5616 14.2649 21.8102 15.1847 21.8102 16.3707C21.8102 17.5639 21.5628 18.4908 21.068 19.1513C20.5732 19.8118 19.8867 20.1409 19.0083 20.1385ZM19.0083 19.027C19.4629 19.027 19.8216 18.8033 20.0843 18.3558C20.3495 17.906 20.4821 17.2443 20.4821 16.3707C20.4797 15.5043 20.3459 14.8473 20.0808 14.3999C19.818 13.95 19.4605 13.7251 19.0083 13.7251C18.5585 13.7251 18.2011 13.95 17.9359 14.3999C17.6731 14.8473 17.5405 15.5043 17.5382 16.3707C17.5358 17.2443 17.6672 17.906 17.9324 18.3558C18.1975 18.8033 18.5562 19.027 19.0083 19.027ZM25.5149 12.6065C25.8629 12.6089 26.2015 12.6705 26.5305 12.7912C26.862 12.9119 27.1603 13.1072 27.4254 13.3771C27.6906 13.647 27.9013 14.008 28.0575 14.4602C28.2138 14.9124 28.2919 15.4723 28.2919 16.1399C28.2919 16.9732 28.1747 17.6858 27.9403 18.2777C27.7083 18.8672 27.3793 19.3182 26.9531 19.6307C26.527 19.9432 26.0227 20.0994 25.4403 20.0994C24.9811 20.0994 24.5739 20.0095 24.2188 19.8295C23.866 19.6496 23.5807 19.4034 23.3629 19.0909C23.1451 18.776 23.0114 18.4186 22.9616 18.0185H24.2578C24.3241 18.3073 24.459 18.5369 24.6626 18.7074C24.8662 18.8755 25.1255 18.9595 25.4403 18.9595C25.9422 18.9595 26.3293 18.7405 26.6016 18.3026C26.8738 17.8622 27.0111 17.2538 27.0135 16.4773H26.9638C26.7886 16.7898 26.54 17.036 26.218 17.2159C25.8961 17.3935 25.5386 17.4822 25.1456 17.4822C24.7218 17.4822 24.3395 17.3804 23.9986 17.1768C23.6577 16.9732 23.3878 16.6939 23.1889 16.3388C22.9901 15.9813 22.8906 15.5729 22.8906 15.1136C22.8906 14.6354 22.9995 14.2069 23.2173 13.8281C23.4375 13.4493 23.7441 13.151 24.1371 12.9332C24.5301 12.7131 24.9893 12.6042 25.5149 12.6065ZM25.5185 13.6719C25.2628 13.6719 25.0331 13.7346 24.8295 13.8601C24.6259 13.9856 24.465 14.1548 24.3466 14.3679C24.2282 14.581 24.169 14.8201 24.169 15.0852C24.169 15.3456 24.2259 15.5824 24.3395 15.7955C24.4555 16.0062 24.6141 16.1731 24.8153 16.2962C25.0166 16.4193 25.2462 16.4808 25.5043 16.4808C25.7599 16.4808 25.9908 16.4169 26.1967 16.2891C26.4027 16.1589 26.5661 15.9872 26.6868 15.7741C26.8075 15.5611 26.8679 15.3291 26.8679 15.0781C26.8679 14.8248 26.8087 14.5916 26.6903 14.3786C26.5743 14.1655 26.4145 13.995 26.2109 13.8672C26.0097 13.737 25.7789 13.6719 25.5185 13.6719Z" fill="white"/>
</svg>
