<svg width="21" height="18" viewBox="0 0 21 18" fill="none" xmlns="http://www.w3.org/2000/svg">
<path d="M10.5 0C4.70108 0 0 4.02969 0 8.99971C0 9.62154 0.0735 10.2288 0.214083 10.8151C1.25183 12.6006 1.96992 11.4736 5.25 9.8333C8.59075 8.16262 5.25 12.1666 4.08333 14.5C3.72458 15.2175 3.91883 15.8247 4.41 16.3223C6.1285 17.3747 8.22733 18 10.5 18C16.2989 18 21 13.9709 21 8.99971C21 4.02969 16.2989 0 10.5 0ZM12.1619 14.2608C11.9315 15.046 10.7269 15.3832 9.471 15.0139C8.21508 14.6452 7.38383 13.7107 7.61425 12.925C7.84467 12.1398 9.04925 11.8026 10.3052 12.1725C11.5611 12.5406 12.3923 13.4751 12.1619 14.2608Z" fill="#D99E82"/>
<path d="M5.8335 6.33351C6.79999 6.33351 7.5835 5.55001 7.5835 4.5835C7.5835 3.617 6.79999 2.8335 5.8335 2.8335C4.867 2.8335 4.0835 3.617 4.0835 4.5835C4.0835 5.55001 4.867 6.33351 5.8335 6.33351Z" fill="#5C913B"/>
<path d="M11.6665 5.16652C12.633 5.16652 13.4165 4.38301 13.4165 3.41651C13.4165 2.45001 12.633 1.6665 11.6665 1.6665C10.7 1.6665 9.9165 2.45001 9.9165 3.41651C9.9165 4.38301 10.7 5.16652 11.6665 5.16652Z" fill="#226699"/>
<path d="M16.9165 8.66676C17.883 8.66676 18.6665 7.88326 18.6665 6.91676C18.6665 5.95025 17.883 5.16675 16.9165 5.16675C15.95 5.16675 15.1665 5.95025 15.1665 6.91676C15.1665 7.88326 15.95 8.66676 16.9165 8.66676Z" fill="#DD2E44"/>
<path d="M16.3335 13.9165C17.3 13.9165 18.0835 13.133 18.0835 12.1665C18.0835 11.2 17.3 10.4165 16.3335 10.4165C15.367 10.4165 14.5835 11.2 14.5835 12.1665C14.5835 13.133 15.367 13.9165 16.3335 13.9165Z" fill="#FFCC4D"/>
</svg>
