<svg width="20" height="18" viewBox="0 0 20 18" fill="none" xmlns="http://www.w3.org/2000/svg">
<path d="M18.2834 16.7558C17.8815 16.755 17.4929 16.612 17.1862 16.3522C15.2612 14.7305 12.9689 13.605 10.5096 13.0734V13.0521H10.4096L10.3891 13.15C10.396 13.1514 10.4028 13.1529 10.4096 13.1543V15.4886L18.2834 16.6558M18.2834 16.7558L18.2832 16.6558C18.2833 16.6558 18.2833 16.6558 18.2834 16.6558M18.2834 16.7558C18.5353 16.7553 18.784 16.6996 19.012 16.5926M18.2834 16.7558L19.012 16.5926M18.2834 16.6558C17.9052 16.655 17.5394 16.5204 17.2509 16.2759L17.2507 16.2758C15.2869 14.6214 12.9434 13.4801 10.4301 12.9542L10.3096 12.929V13.0521V15.4886V15.4889C10.3106 15.7885 10.2277 16.0824 10.0702 16.3372C9.91273 16.592 9.68698 16.7976 9.41858 16.9307L9.41827 16.9309L7.82061 17.7298C7.60463 17.8378 7.36715 17.8959 7.1257 17.8998C6.88425 17.9037 6.645 17.8534 6.42562 17.7524C6.20623 17.6515 6.01231 17.5026 5.85817 17.3168C5.70403 17.1309 5.59361 16.9127 5.53505 16.6785L5.43804 16.7027L5.53505 16.6785L4.54733 12.7278L4.5318 12.6657L4.46889 12.6538C3.47191 12.4654 2.57189 11.9351 1.92393 11.1543C1.276 10.3735 0.920698 9.39121 0.91925 8.37662C0.920593 7.22265 1.37961 6.11632 2.19559 5.30033C3.01162 4.48431 4.118 4.02529 5.27203 4.02398H8.69388H8.69447C8.7487 4.02366 13.1042 3.95535 17.2505 0.477687L17.2505 0.477648C17.4856 0.280247 17.7721 0.154044 18.0765 0.11387C18.3808 0.0736965 18.6902 0.121221 18.9685 0.250859C19.2467 0.380496 19.4822 0.586861 19.6472 0.845701C19.8122 1.10453 19.8999 1.40508 19.9 1.71204C19.9 1.71204 19.9 1.71205 19.9 1.71206V15.0413V15.0419C19.9018 15.3488 19.8151 15.6498 19.6502 15.9088C19.4853 16.1677 19.2492 16.3736 18.9703 16.5017L18.9695 16.5021C18.7548 16.6029 18.5206 16.6553 18.2834 16.6558ZM19.012 16.5926C19.3084 16.4564 19.5593 16.2377 19.7345 15.9625C19.9098 15.6873 20.0019 15.3675 20 15.0413L19.012 16.5926ZM18.045 14.325V14.5298L17.8835 14.4038C15.6943 12.697 13.1234 11.547 10.3918 11.0526L10.3096 11.0378V10.9542V5.79907V5.71554L10.3918 5.70067C13.1234 5.20631 15.6942 4.05632 17.8835 2.34945L18.045 2.22355V2.42832V14.325ZM7.373 15.8795L7.2615 15.9353L7.23127 15.8143L6.49101 12.8536L6.45994 12.7293H6.58802H8.35453H8.45453V12.8293V15.2769V15.3387L8.39926 15.3664L7.373 15.8795ZM8.45453 10.7742V10.8742H8.35453H5.27192C4.60952 10.8742 3.97424 10.6111 3.50585 10.1427C3.03747 9.67432 2.77433 9.03905 2.77433 8.37665C2.77433 7.71425 3.03747 7.07898 3.50585 6.61059C3.97424 6.1422 4.60952 5.87906 5.27192 5.87906H8.35453H8.45453V5.97906V10.7742Z" fill="#008A69" stroke="white" stroke-width="0.2"/>
</svg>
