<svg width="18" height="18" viewBox="0 0 18 18" fill="none" xmlns="http://www.w3.org/2000/svg">
<path d="M16 4H13V2C13 0.8955 12.1045 0 11 0H7C5.8955 0 5 0.8955 5 2V4H2C0.8955 4 0 4.8955 0 6V16C0 17.1045 0.8955 18 2 18H16C17.1045 18 18 17.1045 18 16V6C18 4.8955 17.1045 4 16 4ZM6 3C6 2.448 6.448 2 7 2H11C11.552 2 12 2.448 12 3V4H6V3Z" fill="#9A4E1C"/>
<path d="M18 10C18 11.1045 17.1045 12 16 12H2C0.8955 12 0 11.1045 0 10V6C0 4.8955 0.8955 4 2 4H16C17.1045 4 18 4.8955 18 6V10Z" fill="#662113"/>
<path d="M18 9C18 10.1045 17.1045 11 16 11H2C0.8955 11 0 10.1045 0 9V6C0 4.8955 0.8955 4 2 4H16C17.1045 4 18 4.8955 18 6V9Z" fill="#9A4E1C"/>
<path d="M11 8.99976C11 9.55176 10.552 9.99976 10 9.99976H8C7.448 9.99976 7 9.55176 7 8.99976C7 8.44776 7.448 7.99976 8 7.99976H10C10.552 7.99976 11 8.44776 11 8.99976Z" fill="#CCD6DD"/>
</svg>
