<svg width="18" height="18" viewBox="0 0 18 18" fill="none" xmlns="http://www.w3.org/2000/svg">
<path d="M16.5238 3.61954C16.5238 2.90187 16.8877 3.26071 17.2465 2.90187C17.9652 2.18421 18.3266 1.1072 17.6089 0.389538C16.8907 -0.328127 15.8153 0.0357809 15.0976 0.753446C14.7382 1.11228 15.0986 1.47669 14.3809 1.47669H11.5098L11.8686 1.83045C11.8686 1.83045 13.6633 4.33974 14.0221 3.98091C13.6633 4.34025 16.1695 6.13289 16.1695 6.13289L16.5238 6.49071V3.61954Z" fill="#FFAC33"/>
<path d="M15.4575 7.56713L12.9456 5.0548L10.4333 2.54297C10.0745 2.9018 8.2798 2.54297 7.56213 3.26063L7.2033 3.61947L6.12629 4.69647L0.594586 10.2277C-0.198195 11.0205 -0.198195 12.3066 0.594586 13.0988L4.90109 17.4053C5.69387 18.1981 6.97947 18.1981 7.77225 17.4053L12.7969 12.3812L14.381 10.7971L14.7398 10.4383C15.4575 9.72013 15.0986 7.92597 15.4575 7.56713Z" fill="#CCD6DD"/>
<path d="M16.3547 7.38754C15.8589 7.88341 15.4148 8.24224 14.9194 7.74637L10.2541 3.08104C9.75821 2.58517 10.1175 2.14107 10.6129 1.6452C11.1088 1.14984 11.9117 1.14984 12.4071 1.6452L16.3547 5.59287C16.8506 6.08874 16.8506 6.89218 16.3547 7.38754Z" fill="#55ACEE"/>
<path d="M6.37319 16.1954C6.24326 16.1954 6.11333 16.1456 6.01435 16.0467C5.81591 15.8482 5.81591 15.5274 6.01435 15.329L12.1049 9.23847C12.3033 9.04003 12.6241 9.04003 12.8225 9.23847C13.021 9.43692 13.021 9.7582 12.8225 9.95665L6.73202 16.0472C6.63305 16.1456 6.50312 16.1954 6.37319 16.1954ZM4.34302 14.1652C4.21308 14.1652 4.08315 14.1155 3.98418 14.0165C3.78573 13.818 3.78573 13.4973 3.98418 13.2988L10.0747 7.2083C10.2731 7.00986 10.5939 7.00986 10.7924 7.2083C10.9908 7.40675 10.9908 7.72752 10.7924 7.92597L4.70185 14.017C4.60288 14.1155 4.47295 14.1652 4.34302 14.1652ZM2.31285 12.135C2.18291 12.135 2.05298 12.0853 1.95401 11.9863C1.75556 11.7879 1.75556 11.4671 1.95401 11.2686L8.04452 5.17813C8.24297 4.97968 8.56374 4.97968 8.76219 5.17813C8.96064 5.37658 8.96064 5.69735 8.76219 5.8958L2.67168 11.9868C2.57271 12.0853 2.44278 12.135 2.31285 12.135Z" fill="#99AAB5"/>
</svg>
