<svg width="18" height="18" viewBox="0 0 18 18" fill="none" xmlns="http://www.w3.org/2000/svg">
<path d="M10.999 2.27315C10.999 5.31458 9.16552 11.4515 5.49902 11.4515C1.83252 11.4515 -0.000976562 5.31508 -0.000976562 2.27315C-0.000976562 -1.3215 4.12402 0.437278 5.49902 0.437278C6.85502 0.437278 10.999 -1.34052 10.999 2.27315Z" fill="#A6D388"/>
<path d="M2.74916 5.94452C5.04066 7.3213 6.41566 7.3213 8.24916 5.94452C9.62416 5.02683 7.33266 9.15717 5.49916 9.15717C3.66566 9.15717 1.37417 5.02683 2.74916 5.94452ZM1.83216 4.10915C1.76316 4.10915 1.69316 4.09363 1.62716 4.06058C1.40117 3.94744 1.30917 3.67158 1.42266 3.44479C1.74066 2.80796 2.38916 2.3684 3.07416 2.32584C3.49366 2.30231 4.30316 2.40344 4.96366 3.39572C5.10416 3.6065 5.04716 3.89137 4.83666 4.03205C4.62516 4.17273 4.34116 4.11566 4.20116 3.90488C3.89616 3.44679 3.52366 3.21699 3.13116 3.24203C2.76616 3.26455 2.41716 3.50537 2.24266 3.85582C2.16216 4.01603 2.00016 4.10915 1.83216 4.10915ZM9.16616 4.10915C8.99816 4.10915 8.83616 4.01603 8.75616 3.85532C8.58116 3.50537 8.23266 3.26455 7.86766 3.24153C7.47966 3.2205 7.10316 3.44629 6.79766 3.90438C6.65666 4.11566 6.37266 4.17223 6.16216 4.03155C5.95166 3.89086 5.89466 3.606 6.03516 3.39522C6.69516 2.40244 7.50066 2.30081 7.92466 2.32534C8.60966 2.3679 9.25816 2.80746 9.57616 3.44429C9.68966 3.67108 9.59766 3.94644 9.37116 4.06008C9.30516 4.09363 9.23516 4.10915 9.16616 4.10915Z" fill="#5C913B"/>
<path d="M17.999 8.82168C17.999 11.8626 16.1655 18 12.499 18C8.83252 18 6.99902 11.8626 6.99902 8.82168C6.99902 5.22653 11.124 6.9858 12.499 6.9858C13.8555 6.9858 17.999 5.20751 17.999 8.82168Z" fill="#CBB7EA"/>
<path d="M14.7489 15.0717C12.9989 13.9948 11.9989 13.9948 10.2489 15.0717C8.87394 15.9894 10.6654 12.8603 12.4989 12.8603C14.3324 12.8603 16.1239 15.9894 14.7489 15.0717ZM8.49894 10.9493C8.42994 10.9493 8.35994 10.9338 8.29394 10.9008C8.06744 10.7876 7.97594 10.5118 8.08894 10.285C8.43894 9.58459 9.29094 9.03838 10.1144 8.98731C10.8589 8.93775 11.5219 9.28019 11.9634 9.94405C12.1039 10.1553 12.0469 10.4397 11.8364 10.5809C11.6259 10.7216 11.3414 10.6645 11.2009 10.4537C10.9399 10.0622 10.5934 9.87897 10.1714 9.9035C9.61094 9.93804 9.08944 10.3336 8.90844 10.696C8.82844 10.8562 8.66644 10.9493 8.49894 10.9493ZM16.4994 10.9493C16.3309 10.9493 16.1694 10.8562 16.0889 10.695C15.9089 10.3331 15.3874 9.93804 14.8269 9.903C14.4059 9.87947 14.0574 10.0612 13.7969 10.4532C13.6569 10.664 13.3714 10.7211 13.1614 10.5804C12.9509 10.4397 12.8939 10.1548 13.0344 9.94355C13.4764 9.27969 14.1284 8.93775 14.8839 8.98681C15.7079 9.03838 16.5599 9.58459 16.9094 10.285C17.0224 10.5113 16.9304 10.7871 16.7039 10.9003C16.6379 10.9338 16.5684 10.9493 16.4994 10.9493Z" fill="#9266CC"/>
</svg>
