<svg width="23" height="20" viewBox="0 0 23 20" fill="none" xmlns="http://www.w3.org/2000/svg">
<path d="M6.38893 1.97297C5.75004 2.55449 6.38893 3.13602 6.38893 3.71754C6.38893 4.29907 7.66671 3.71754 7.66671 3.71754C7.66671 3.71754 8.3056 3.13602 8.94449 4.29907C9.58338 5.46212 11.5 4.88059 10.8612 3.71754C10.2223 2.55449 8.3056 3.13602 8.3056 1.97297C8.3056 0.809915 6.38893 1.97297 6.38893 1.97297Z" fill="#7C533E"/>
<path d="M12.1388 8.36963C12.1388 8.36963 10.2222 9.53268 10.2222 10.1142C10.2222 10.6957 12.7777 12.4403 13.4166 13.0218C14.0555 13.6034 15.3333 13.6034 14.6944 12.4403C14.0555 11.2773 12.1388 8.36963 12.1388 8.36963Z" fill="#664131"/>
<path d="M9.16614 0.752279C8.69017 0.354516 7.33828 0.167265 6.66042 0.896497C6.08606 0.906965 5.97489 1.42569 6.08159 1.69435C6.16656 1.90893 6.77542 1.86067 7.01436 2.25436C7.09614 2.13049 7.07761 1.9101 7.03097 1.79903C7.2565 1.93219 7.26672 2.38462 8.07492 2.53873C8.85628 2.6876 8.85245 3.29122 8.85245 3.29122C8.85245 3.29122 9.19809 3.06035 9.40381 2.7347C9.79609 2.11189 9.69003 1.19133 9.16614 0.752279Z" fill="#0B0200"/>
<path d="M13.1829 12.4525C13.1829 12.4525 13.9323 12.9113 14.4364 12.2286C14.9405 11.5459 15.3085 13.2585 15.3085 13.2585C15.3085 13.2585 13.6736 14.735 12.4201 14.9589C11.1666 15.1828 11.6707 14.5001 12.1741 13.8179L13.1829 12.4525Z" fill="#C63900"/>
<path d="M4.47222 11.8584C2.00228 11.8584 0 13.6809 0 15.9291C0 18.1773 2.00228 19.9998 4.47222 19.9998C6.94217 19.9998 8.94444 18.1773 8.94444 15.9291C8.94444 13.6809 6.94281 11.8584 4.47222 11.8584ZM4.47222 18.8367C2.70825 18.8367 1.27778 17.5352 1.27778 15.9291C1.27778 14.3229 2.70825 13.0214 4.47222 13.0214C6.23619 13.0214 7.66667 14.3229 7.66667 15.9291C7.66667 17.5352 6.23683 18.8367 4.47222 18.8367ZM18.5278 11.8584C16.0585 11.8584 14.0556 13.6809 14.0556 15.9291C14.0556 18.1773 16.0585 19.9998 18.5278 19.9998C20.9984 19.9998 23 18.1773 23 15.9291C23 13.6809 20.9984 11.8584 18.5278 11.8584ZM18.5278 18.8367C16.7638 18.8367 15.3333 17.5352 15.3333 15.9291C15.3333 14.3229 16.7638 13.0214 18.5278 13.0214C20.2924 13.0214 21.7222 14.3229 21.7222 15.9291C21.7222 17.5352 20.2924 18.8367 18.5278 18.8367Z" fill="#292F33"/>
<path d="M14.0556 10.696C14.0556 10.3744 13.7463 10.1145 13.3636 10.1145H6.44192C6.05986 10.1145 5.75 10.3744 5.75 10.696C5.75 11.0176 6.05986 11.2776 6.44192 11.2776H13.363C13.7463 11.2776 14.0556 11.0176 14.0556 10.696ZM19.1667 15.9298C19.1667 15.6082 18.8811 15.3482 18.5278 15.3482H11.5C11.1473 15.3482 10.8611 15.6082 10.8611 15.9298C10.8611 16.2513 11.1473 16.5113 11.5 16.5113H18.5278C18.8811 16.5113 19.1667 16.2513 19.1667 15.9298Z" fill="#AAB8C2"/>
<path d="M13.5601 8.95117L10.8985 15.7341C10.7803 16.0359 10.9534 16.3691 11.2856 16.4767C11.3566 16.5 11.4288 16.511 11.5003 16.511C11.7629 16.511 12.0089 16.3627 12.1021 16.1249L14.9171 8.95117H13.5601Z" fill="#AAB8C2"/>
<path d="M18.5287 16.5109C18.3179 16.5109 18.1109 16.4155 17.9888 16.2416L13.5166 9.84486C13.3269 9.57387 13.415 9.21448 13.7128 9.04177C14.0111 8.86906 14.4053 8.94931 14.5951 9.2203L19.0673 15.6171C19.257 15.8881 19.1689 16.2475 18.8712 16.4202C18.7645 16.4812 18.6463 16.5109 18.5287 16.5109ZM12.1392 14.0301L6.78082 10.2362C6.5029 10.0385 6.10168 10.085 5.88446 10.3386C5.66788 10.5927 5.71835 10.9573 5.9969 11.1545L11.7469 15.2251C11.8632 15.3083 12.0012 15.3478 12.1385 15.3478H12.1392V14.0301Z" fill="#AAB8C2"/>
<path d="M4.47242 16.511C4.40598 16.511 4.33761 16.5011 4.27053 16.4807C3.93575 16.3795 3.75495 16.0504 3.86675 15.7451L5.63775 10.9091L3.45084 9.41576C3.16845 9.22327 3.11159 8.85866 3.32306 8.60162C3.53453 8.34575 3.93448 8.29283 4.2175 8.48532L7.1417 10.4817L5.07936 16.1132C4.98928 16.3568 4.73948 16.511 4.47242 16.511Z" fill="#AAB8C2"/>
<path d="M16.8557 10.1143C16.8365 10.1143 16.818 10.1131 16.7988 10.1108L13.1751 9.69904C12.9374 9.67229 12.7636 9.48155 12.7789 9.26406C12.7936 9.04657 12.9917 8.87735 13.2306 8.87735C13.2568 8.87735 15.829 8.86688 17.0569 8.12195C17.2167 8.02483 17.4288 8.03065 17.5834 8.13707C17.7361 8.24465 17.7987 8.42841 17.7374 8.59531L17.2844 9.83221C17.2231 10.0026 17.0486 10.1143 16.8557 10.1143ZM7.02767 9.53273H3.83322C3.48056 9.53273 3.19434 9.2722 3.19434 8.9512C3.19434 8.6302 3.48056 8.36968 3.83322 8.36968H7.02767C7.38034 8.36968 7.66656 8.6302 7.66656 8.9512C7.66656 9.2722 7.38034 9.53273 7.02767 9.53273Z" fill="#292F33"/>
<path d="M14.0549 6.62476L11.5 8.36933L13.4167 10.1139L14.0549 6.62476Z" fill="#C63900"/>
<path d="M12.7771 8.95086C12.7771 8.95086 11.4993 10.6954 11.4993 11.277C11.4993 11.8585 12.1382 13.6031 12.1382 15.3476C12.1382 17.0922 13.416 17.0922 13.416 16.5107C13.416 15.9292 14.4261 13.3594 13.416 12.44C12.7771 11.8585 14.6938 10.1139 14.6938 10.1139L12.7771 8.95086ZM10.0209 6.79747L8.26397 6.34155C7.97839 7.47902 6.33261 8.95028 5.74995 8.95028C5.11106 8.95028 4.47217 8.95028 4.47217 9.5318C4.47217 10.1133 4.47217 10.1133 5.74995 10.1133C7.02772 10.1133 8.3055 8.95028 8.94439 8.36875C9.35967 7.99076 9.7807 7.34701 10.0209 6.79747Z" fill="#7C533E"/>
<path d="M14.0549 6.62495L12.1382 8.95105L14.6937 10.6956C14.6937 10.6956 17.8882 7.788 17.8882 6.62495C17.8882 5.4619 15.9715 4.88037 15.9715 4.88037L14.0549 6.62495Z" fill="#DD551F"/>
<path d="M13.4161 3.13489C11.4994 2.55337 9.84786 2.89414 8.94383 3.71642C8.30494 4.29794 8.30494 4.87947 8.30494 6.04252C8.30494 6.14487 8.28577 6.25303 8.2583 6.36236L10.0114 6.81828C10.1405 6.52228 10.2222 6.24605 10.2222 6.04252C10.2222 5.46099 10.8611 5.46099 11.5 6.04252C12.1389 6.62405 12.7778 7.20557 13.4167 7.20557C14.0556 7.20557 17.25 4.87947 17.25 4.87947C15.3327 4.29794 14.6287 3.50242 13.4161 3.13489Z" fill="#FA743E"/>
<path d="M12.1391 15.9293C12.1391 15.9293 12.778 16.5108 13.4169 15.9293C14.0558 15.3478 14.0558 17.0924 14.0558 17.0924C14.0558 17.0924 12.1391 18.2554 10.8613 18.2554C9.58355 18.2554 10.2224 17.6739 10.8613 17.0924L12.1391 15.9293ZM7.02799 0.228135C8.30577 -0.35339 10.8613 0.228135 9.58355 1.39119C8.94466 1.97271 5.11133 2.55424 5.11133 2.55424C5.11133 1.97271 5.75022 0.809661 7.02799 0.228135Z" fill="#DD551F"/>
</svg>
