<svg width="21" height="18" viewBox="0 0 21 18" fill="none" xmlns="http://www.w3.org/2000/svg">
<path d="M19.8333 13.8576C19.5901 13.2798 19.3107 12.6528 18.6667 12.6528H18.0833C18.7273 12.6528 19.25 12.1134 19.25 11.448V1.2048C19.25 0.5394 18.7273 0 18.0833 0H2.91667C2.27267 0 1.75 0.5394 1.75 1.2048V11.448C1.75 12.1134 2.27267 12.6528 2.91667 12.6528H2.33333C1.68933 12.6528 1.36092 13.2552 1.16667 13.8576L0 16.7946C0 17.4606 0.522667 18 1.16667 18H19.8333C20.4773 18 21 17.4606 21 16.7952L19.8333 13.8576Z" fill="#CCD6DD"/>
<path d="M0.00488281 16.845L0.00838281 16.8792L0.107549 17.2944C0.291883 17.7096 0.695549 18 1.16688 18H19.8335C20.4612 18 20.9693 17.487 20.9955 16.845H0.00488281Z" fill="#9AAAB4"/>
<path d="M18.0832 10.8449C18.0832 11.1779 17.8224 11.4473 17.4998 11.4473H3.49984C3.17784 11.4473 2.9165 11.1779 2.9165 10.8449V1.80772C2.9165 1.47472 3.17784 1.20532 3.49984 1.20532H17.4998C17.8224 1.20532 18.0832 1.47532 18.0832 1.80772V10.8449Z" fill="#5DADEC"/>
<path d="M19.1953 15.0252L18.752 13.7202C18.6125 13.4442 18.3815 13.218 18.059 13.218H2.98096C2.65896 13.218 2.45246 13.4628 2.30662 13.8396L1.90529 15.0258C1.77754 15.3834 2.16662 15.6282 2.48862 15.6282H6.90912C6.90912 15.6282 7.45571 15.6 7.55254 15.2634C7.66454 14.8746 7.79462 14.289 7.82262 14.1858C7.86579 14.0274 8.04896 13.8672 8.32196 13.8672H13.3258C13.6175 13.8672 13.761 14.019 13.7989 14.2068C13.8234 14.3292 13.9809 14.8914 14.0544 15.276C14.1191 15.6186 14.7666 15.6276 14.7666 15.6276H18.6131C18.9345 15.6276 19.323 15.345 19.1953 15.0252Z" fill="#AEBBC1"/>
<path d="M13.0522 16.2675H8.51332C8.29457 16.2675 8.19948 16.0617 8.23098 15.8625C8.26248 15.6639 8.4404 14.7867 8.4544 14.6847C8.46782 14.5821 8.61423 14.4597 8.76007 14.4597H12.8521C13.0254 14.4597 13.138 14.5575 13.173 14.7531C13.2074 14.9493 13.3491 15.7377 13.3602 15.9177C13.3713 16.0983 13.2616 16.2675 13.0522 16.2675Z" fill="#9AAAB4"/>
</svg>
