<svg width="16" height="16" viewBox="0 0 16 16" fill="none" xmlns="http://www.w3.org/2000/svg">
<path d="M7.31473 2.87054H2.79216C2.44946 2.87054 2.12079 3.00668 1.87847 3.24901C1.63614 3.49134 1.5 3.82 1.5 4.16271V13.2078C1.5 13.5505 1.63614 13.8792 1.87847 14.1215C2.12079 14.3639 2.44946 14.5 2.79216 14.5H11.8373C12.18 14.5 12.5087 14.3639 12.751 14.1215C12.9933 13.8792 13.1295 13.5505 13.1295 13.2078V8.68527M12.1603 1.90142C12.4174 1.6444 12.766 1.5 13.1295 1.5C13.4929 1.5 13.8416 1.6444 14.0986 1.90142C14.3556 2.15845 14.5 2.50705 14.5 2.87054C14.5 3.23404 14.3556 3.58264 14.0986 3.83967L7.96081 9.97743L5.37649 10.6235L6.02257 8.03919L12.1603 1.90142Z" stroke="#49504F" stroke-width="1.4" stroke-linecap="round" stroke-linejoin="round"/>
</svg>
