<svg width="17" height="18" viewBox="0 0 17 18" fill="none" xmlns="http://www.w3.org/2000/svg">
<path d="M11.4926 6.76538H5.50576C5.50576 6.76538 3.01123 9.82938 3.01123 11.8721C3.01123 13.9147 8.49921 17.4894 8.49921 17.4894C8.49921 17.4894 13.9872 13.9147 13.9872 11.8721C13.9872 9.82938 11.4926 6.76538 11.4926 6.76538Z" fill="#31373D"/>
<path d="M9.31747 0.269632C8.86795 -0.0898774 8.13157 -0.0898774 7.68205 0.269632L0.336648 6.14026C-0.112867 6.49977 -0.112867 7.08806 0.336648 7.44757L7.68155 13.3177C8.13157 13.6772 8.86746 13.6772 9.31697 13.3177L16.6619 7.44757C17.1119 7.08806 17.1119 6.49977 16.6619 6.14026L9.31747 0.269632Z" fill="#292F33"/>
<path d="M9.31747 0.269632C8.86795 -0.0898774 8.13157 -0.0898774 7.68205 0.269632L0.336648 6.14026C-0.112867 6.49977 -0.112867 7.08806 0.336648 7.44757L7.68155 13.3177C8.13107 13.6772 8.86746 13.6772 9.31697 13.3177L16.6624 7.44757C17.1119 7.08806 17.1119 6.49977 16.6624 6.14026L9.31747 0.269632Z" fill="#394146"/>
<path d="M3.51051 12.3828C3.51051 12.3828 2.5127 13.4041 2.5127 13.9148V16.9788C2.5127 16.9788 2.5127 18.0002 3.51051 18.0002C4.50832 18.0002 4.50832 16.9788 4.50832 16.9788V13.9148C4.50832 13.4041 3.51051 12.3828 3.51051 12.3828Z" fill="#FCAB40"/>
<path d="M3.51039 14.4253C4.33701 14.4253 5.00711 13.7394 5.00711 12.8933C5.00711 12.0472 4.33701 11.3613 3.51039 11.3613C2.68378 11.3613 2.01367 12.0472 2.01367 12.8933C2.01367 13.7394 2.68378 14.4253 3.51039 14.4253Z" fill="#FDD888"/>
<path d="M3.51098 13.4041C3.23558 13.4041 3.01207 13.1758 3.01207 12.8934V10.8722C2.99112 10.5485 3.10537 9.83251 3.66913 9.39946L8.17027 5.36009C8.37781 5.17369 8.69312 5.19514 8.87423 5.40758C9.05583 5.6195 9.03488 5.94225 8.82783 6.12813L4.29775 10.192C3.99641 10.4249 4.00939 10.8416 4.00939 10.8457L4.01038 12.8934C4.01038 13.1758 3.78687 13.4041 3.51098 13.4041Z" fill="#FCAB40"/>
<path d="M8.49916 7.78666C9.32578 7.78666 9.99588 7.10076 9.99588 6.25466C9.99588 5.40856 9.32578 4.72266 8.49916 4.72266C7.67255 4.72266 7.00244 5.40856 7.00244 6.25466C7.00244 7.10076 7.67255 7.78666 8.49916 7.78666Z" fill="#31373D"/>
</svg>
