<svg width="20" height="18" viewBox="0 0 20 18" fill="none" xmlns="http://www.w3.org/2000/svg">
<path d="M19.9875 16.3605C19.9875 16.3605 19.3706 17.4307 18.3729 17.4307H10.9403C8.8982 17.4307 8.47348 15.0518 6.66842 11.3937C4.86337 7.73507 2.78866 9.6586 2.78866 9.6586L2.10607 18H1.38473C1.38473 18 1.03979 10.8552 0.682482 9.69105C-0.129313 7.04399 0.33136 5.03394 0.33136 5.03394L4.83584 5.34304L10.51 14.1802L19.9875 16.3605Z" fill="#292F33"/>
<path d="M17.1795 13.1596C16.5408 12.9831 16.1267 12.8038 16.1267 12.8038C15.8391 13.1078 15.4351 13.1596 15.0739 13.1596C12.925 13.1596 11.811 12.2738 10.511 9.24706C7.70258 2.71195 3.08124 0 1.73574 0C0.302595 0 -0.490662 6.75769 0.331808 6.75769C2.92 6.75769 5.05933 7.28596 6.57842 8.89184C8.84977 11.2924 9.67561 16.3605 11.1385 16.3605H19.9879C19.9879 16.3605 20.3385 14.0488 17.1795 13.1596Z" fill="#DD2E44"/>
</svg>
