<svg width="17" height="18" viewBox="0 0 17 18" fill="none" xmlns="http://www.w3.org/2000/svg">
<path d="M8.5 0C3.80573 0 0 2.45018 0 6.81818C0 6.85036 0.0294667 7.23164 0.0708333 7.64127C0.221567 7.63364 8.5 14.1818 8.5 14.1818C8.5 14.1818 16.7773 7.63309 16.9269 7.64073C16.9552 7.37127 17 6.86018 17 6.81818C17 2.45018 13.1943 0 8.5 0Z" fill="#BE1931"/>
<path d="M15.3942 5.18664C15.2055 5.16591 15.0264 5.20845 14.874 5.29354C14.8723 5.05791 14.8405 4.85118 14.7595 4.69136L14.9726 4.07609C15.121 3.64736 14.8808 3.18427 14.4354 3.04136C14.2365 2.97645 14.0313 2.99064 13.8506 3.061C13.7418 2.66827 13.3496 2.40318 12.9184 2.461C12.8487 2.47027 12.7835 2.48936 12.7212 2.51336C12.6345 2.20518 12.3642 1.96136 12.0151 1.91554C11.5442 1.855 11.1209 2.16809 11.058 2.61591L10.8801 3.87373C10.7124 3.65718 10.4387 3.52354 10.14 3.54645C9.77566 3.57154 9.48439 3.81427 9.38693 4.13282L9.34556 3.73573C9.29853 3.28573 8.87806 2.95736 8.41509 3.00318C7.95269 3.04791 7.61496 3.44173 7.65406 3.88627L7.64273 3.89173C7.67049 3.60209 7.53903 3.32391 7.30273 3.15754L7.06643 2.02082C6.97406 1.57791 6.52809 1.28936 6.06626 1.37882C5.60613 1.46718 5.30749 1.89864 5.39929 2.34154L5.80616 4.30027L5.58969 5.17573L4.76576 2.99282C4.60483 2.56791 4.11693 2.34864 3.67663 2.50354C3.23519 2.65845 3.00739 3.12754 3.16776 3.55245L3.79563 5.21445C3.60013 5.34318 3.45903 5.54718 3.42956 5.79154L3.29073 6.93645L3.10543 5.86573C3.02836 5.41954 2.58919 5.11736 2.12736 5.19318C1.66439 5.26736 1.35159 5.689 1.42866 6.13464L2.30699 11.2068H15.5132C15.5409 11.1403 16.1456 6.09045 16.1456 6.09045C16.1966 5.641 15.8605 5.23682 15.3942 5.18664Z" fill="#F4900C"/>
<path d="M13.8752 3.16185C13.8701 3.12694 13.8593 3.09476 13.8502 3.06149C13.7414 2.66876 13.3493 2.40367 12.9181 2.46149C12.8484 2.47076 12.7832 2.48985 12.7209 2.51385C12.3656 2.64912 12.1366 3.00203 12.191 3.38276L13.2994 11.2062H15.0153L13.8752 3.16185ZM11.0475 4.30512C11.0356 4.14312 10.9733 3.99585 10.8792 3.87421C10.7115 3.65767 10.4378 3.52403 10.1391 3.54694C9.77476 3.57203 9.48349 3.81476 9.38603 4.13331C9.35826 4.2244 9.34409 4.32094 9.35146 4.42131L9.84956 11.1369L9.85466 11.2062H11.5598L11.5586 11.1915L11.0475 4.30512ZM4.37159 5.07312C4.15966 5.04967 3.95906 5.10585 3.79529 5.21385C3.59979 5.34258 3.45869 5.54658 3.42923 5.79094L2.77246 11.2068H4.48379L5.11733 5.98076C5.17173 5.53185 4.83796 5.12549 4.37159 5.07312ZM7.06666 2.02131C6.97429 1.5784 6.52833 1.28985 6.06649 1.37931C5.60636 1.46767 5.30773 1.89912 5.39953 2.34203L7.24119 11.2068H8.97463L7.06666 2.02131Z" fill="#FFCC4D"/>
<path d="M14.7328 8.18165C14.7328 9.68819 12.2548 10.9089 8.49948 10.9089C4.74418 10.9089 2.26615 9.68819 2.26615 8.18165C2.26615 7.57946 1.19175 7.63619 0.566146 7.63619C0.387079 7.63619 0.221046 7.63346 0.0703125 7.6411C0.104879 7.98746 1.13281 15.818 1.13281 15.818C1.13281 17.0229 2.14771 17.9998 3.39948 17.9998H13.5995C14.8512 17.9998 15.8661 17.0229 15.8661 15.818C15.8661 15.818 16.919 7.71037 16.9264 7.64055C16.7768 7.63292 16.6107 7.63619 16.4328 7.63619C15.8072 7.63619 14.7328 7.57946 14.7328 8.18165Z" fill="#DD2E44"/>
<path d="M8.50007 16.3639C9.75191 16.3639 10.7667 15.387 10.7667 14.1821C10.7667 12.9771 9.75191 12.0002 8.50007 12.0002C7.24822 12.0002 6.2334 12.9771 6.2334 14.1821C6.2334 15.387 7.24822 16.3639 8.50007 16.3639Z" fill="#BE1931"/>
</svg>
