<svg width="16" height="20" viewBox="0 0 16 20" fill="none" xmlns="http://www.w3.org/2000/svg">
<path d="M0 6.13721V6.21394C0 6.19042 0.00628564 6.16689 0.00857135 6.14337L0 6.13721ZM7.42857 12.3751C7.34514 12.3376 7.26457 12.2939 7.19314 12.2373L0.322857 6.83454C0.107429 6.66371 0 6.4391 0 6.21394V13.0685C0 14.2123 0.624571 14.4598 0.624571 14.4598L7.23829 19.5562C7.35543 19.6464 7.45371 19.7013 7.54 19.7344C7.47486 19.6369 7.42857 19.5243 7.42857 19.396V12.3751ZM2.41543 12.5784C1.84743 12.5784 1.25371 12.0144 1.09029 11.3182C0.926286 10.6225 1.25429 10.0585 1.82171 10.0585C2.38971 10.0585 2.98343 10.6225 3.14686 11.3182C3.31086 12.0144 2.98343 12.5784 2.41543 12.5784ZM5.60571 16.7792C5.03771 16.7792 4.444 16.2146 4.28057 15.519C4.11657 14.8228 4.44457 14.2587 5.01257 14.2587C5.58057 14.2587 6.17428 14.8228 6.33771 15.519C6.50114 16.2146 6.17371 16.7792 5.60571 16.7792Z" fill="#A0041E"/>
<path d="M15.677 6.78749L8.76046 12.2373C8.70217 12.2838 8.63817 12.3225 8.57132 12.3561V19.396C8.57132 19.5266 8.52389 19.6408 8.45703 19.74C8.5456 19.7075 8.64846 19.6503 8.77017 19.5562C9.81075 18.7542 15.3919 14.4598 15.3919 14.4598C15.3919 14.4598 15.9999 14.2123 15.9999 13.0685V6.16689C15.9999 6.39206 15.8925 6.61666 15.677 6.78749ZM11.4159 16.1586C11.2776 16.7955 10.7765 17.3113 10.297 17.3113C9.81817 17.3113 9.5416 16.7955 9.67989 16.1586C9.81817 15.5218 10.3187 15.0059 10.7982 15.0059C11.2776 15.0059 11.5536 15.5218 11.4159 16.1586ZM13.4376 13.2063C13.2925 13.8628 12.7645 14.3943 12.2593 14.3943C11.7547 14.3943 11.4639 13.8628 11.609 13.2063C11.7547 12.5499 12.2827 12.0183 12.7867 12.0183C13.2925 12.0183 13.5833 12.5499 13.4376 13.2063ZM15.1879 10.347C15.0445 10.9715 14.5233 11.4767 14.025 11.4767C13.5267 11.4767 13.2393 10.9715 13.3833 10.347C13.5267 9.72357 14.0473 9.21779 14.5456 9.21779C15.0445 9.21779 15.3319 9.72357 15.1879 10.347ZM15.9965 6.14001C15.997 6.14897 15.9999 6.15793 15.9999 6.16689V6.13721L15.9965 6.14001Z" fill="#DD2E44"/>
<path d="M15.6771 5.54645L8.73657 0.256249C8.30629 -0.0854162 7.60057 -0.0854162 7.16971 0.256249L0.322857 5.5935C0.129714 5.74641 0.0285714 5.94301 0.00799997 6.14409C0.00628568 6.16761 0 6.19058 0 6.2141C0 6.43926 0.107429 6.66387 0.322857 6.8347L7.19314 12.2375C7.26457 12.2941 7.34457 12.3372 7.42857 12.3753V19.3962C7.42857 19.5245 7.47486 19.6371 7.53943 19.7345C7.64286 19.8913 7.80571 20 8 20C8.192 20 8.35371 19.8936 8.45714 19.7401C8.524 19.6415 8.57143 19.5273 8.57143 19.3962V12.3562C8.63829 12.3226 8.70229 12.284 8.76057 12.2375L15.6771 6.78765C15.8926 6.61682 16 6.39221 16 6.16705C16 6.15809 15.9971 6.14913 15.9966 6.13961C15.9886 5.92397 15.8834 5.71 15.6771 5.54645ZM8.28572 4.83064C9.20572 4.83064 9.952 5.41539 9.952 6.13737C9.952 6.85934 9.20572 7.44409 8.28572 7.44409C7.36514 7.44409 6.61943 6.85934 6.61943 6.13737C6.61943 5.41539 7.36514 4.83064 8.28572 4.83064Z" fill="#EA596E"/>
<path d="M8.28591 7.44451C9.20618 7.44451 9.9522 6.85947 9.9522 6.13778C9.9522 5.4161 9.20618 4.83105 8.28591 4.83105C7.36565 4.83105 6.61963 5.4161 6.61963 6.13778C6.61963 6.85947 7.36565 7.44451 8.28591 7.44451Z" fill="white"/>
<path d="M14.546 9.21777C14.0477 9.21777 13.5271 9.72355 13.3837 10.3469C13.2397 10.9715 13.5271 11.4767 14.0254 11.4767C14.5237 11.4767 15.0448 10.9715 15.1882 10.3469C15.3322 9.72355 15.0448 9.21777 14.546 9.21777ZM12.7877 12.0183C12.2831 12.0183 11.7551 12.5498 11.61 13.2063C11.4648 13.8627 11.7557 14.3943 12.2602 14.3943C12.7654 14.3943 13.2934 13.8627 13.4385 13.2063C13.5837 12.5498 13.2928 12.0183 12.7877 12.0183ZM10.798 15.0059C10.3185 15.0059 9.81795 15.5218 9.67967 16.1586C9.54138 16.7955 9.81795 17.3113 10.2968 17.3113C10.7762 17.3113 11.2774 16.7955 11.4157 16.1586C11.554 15.5218 11.2774 15.0059 10.798 15.0059Z" fill="white"/>
<path d="M1.82157 10.0588C1.25357 10.0588 0.926146 10.6229 1.09015 11.3185C1.25415 12.0147 1.84729 12.5788 2.41529 12.5788C2.98329 12.5788 3.31072 12.0147 3.14672 11.3185C2.98329 10.6229 2.38957 10.0588 1.82157 10.0588ZM5.01186 14.2591C4.44386 14.2591 4.11643 14.8231 4.27986 15.5193C4.44386 16.215 5.03758 16.7796 5.60558 16.7796C6.17358 16.7796 6.501 16.215 6.33757 15.5193C6.17357 14.8231 5.57986 14.2591 5.01186 14.2591Z" fill="#E1E8ED"/>
</svg>
