<svg width="25" height="18" viewBox="0 0 25 18" fill="none" xmlns="http://www.w3.org/2000/svg">
<path d="M1.43506 5.55025L1.43226 5.54883C1.43226 5.54883 0 14.3789 0 15.6518C0 16.9489 0.937849 17.9999 2.09497 17.9999C2.56983 17.9999 3.00279 17.8164 3.35405 17.5178L10.4532 11.1617L1.43506 5.55025ZM23.5649 5.55025L23.5677 5.54883C23.5677 5.54883 25 14.3789 25 15.6518C25 16.9489 24.0622 17.9999 22.905 17.9999C22.4302 17.9999 21.9972 17.8164 21.646 17.5178L14.5468 11.1617L23.5649 5.55025Z" fill="#31373D"/>
<path d="M18.0866 12.0891C21.3649 12.0891 24.0224 9.38288 24.0224 6.04456C24.0224 2.70624 21.3649 0 18.0866 0C14.8084 0 12.1509 2.70624 12.1509 6.04456C12.1509 9.38288 14.8084 12.0891 18.0866 12.0891Z" fill="#14171A"/>
<path d="M6.91329 12.0891C10.1915 12.0891 12.849 9.38288 12.849 6.04456C12.849 2.70624 10.1915 0 6.91329 0C3.63507 0 0.977539 2.70624 0.977539 6.04456C0.977539 9.38288 3.63507 12.0891 6.91329 12.0891Z" fill="#14171A"/>
<path d="M6.91357 0H18.0868V11.9967H6.91357V0Z" fill="#14171A"/>
<path d="M9.07805 15.1113C11.0064 15.1113 12.5697 13.5193 12.5697 11.5556C12.5697 9.59191 11.0064 8 9.07805 8C7.14968 8 5.58643 9.59191 5.58643 11.5556C5.58643 13.5193 7.14968 15.1113 9.07805 15.1113Z" fill="#14171A"/>
<path d="M15.9218 15.1113C17.8502 15.1113 19.4134 13.5193 19.4134 11.5556C19.4134 9.59191 17.8502 8 15.9218 8C13.9934 8 12.4302 9.59191 12.4302 11.5556C12.4302 13.5193 13.9934 15.1113 15.9218 15.1113Z" fill="#14171A"/>
<path d="M15.9216 13.6891C17.0787 13.6891 18.0166 12.734 18.0166 11.5557C18.0166 10.3775 17.0787 9.42236 15.9216 9.42236C14.7646 9.42236 13.8267 10.3775 13.8267 11.5557C13.8267 12.734 14.7646 13.6891 15.9216 13.6891Z" fill="#67757F"/>
<path d="M9.07837 13.6891C10.2354 13.6891 11.1733 12.734 11.1733 11.5557C11.1733 10.3775 10.2354 9.42236 9.07837 9.42236C7.92135 9.42236 6.9834 10.3775 6.9834 11.5557C6.9834 12.734 7.92135 13.6891 9.07837 13.6891Z" fill="#67757F"/>
<path d="M17.9192 4.04281C18.5375 4.04281 19.0386 3.53244 19.0386 2.90287C19.0386 2.27331 18.5375 1.76294 17.9192 1.76294C17.301 1.76294 16.7998 2.27331 16.7998 2.90287C16.7998 3.53244 17.301 4.04281 17.9192 4.04281Z" fill="#FFCC4D"/>
<path d="M17.9192 8.64657C18.5375 8.64657 19.0386 8.1362 19.0386 7.50663C19.0386 6.87707 18.5375 6.3667 17.9192 6.3667C17.301 6.3667 16.7998 6.87707 16.7998 7.50663C16.7998 8.1362 17.301 8.64657 17.9192 8.64657Z" fill="#77B255"/>
<path d="M15.6585 6.34456C16.2767 6.34456 16.7779 5.8342 16.7779 5.20463C16.7779 4.57506 16.2767 4.0647 15.6585 4.0647C15.0402 4.0647 14.5391 4.57506 14.5391 5.20463C14.5391 5.8342 15.0402 6.34456 15.6585 6.34456Z" fill="#50A5E6"/>
<path d="M20.1795 6.34456C20.7977 6.34456 21.2989 5.8342 21.2989 5.20463C21.2989 4.57506 20.7977 4.0647 20.1795 4.0647C19.5612 4.0647 19.0601 4.57506 19.0601 5.20463C19.0601 5.8342 19.5612 6.34456 20.1795 6.34456Z" fill="#DD2E44"/>
<path d="M7.7326 3.88472V2.34301C7.7326 2.1446 7.57477 1.98389 7.37994 1.98389H6.29195C6.09712 1.98389 5.9393 2.1446 5.9393 2.34301V3.88472L6.83595 4.79852L7.7326 3.88472ZM5.9386 6.46611V8.00783C5.9386 8.20623 6.09642 8.36695 6.29126 8.36695H7.37924C7.57408 8.36695 7.7319 8.20623 7.7319 8.00783V6.46611L6.83525 5.55231L5.9386 6.46611ZM9.61807 4.26162H8.1041L7.20676 5.17542L8.1041 6.08921H9.61807C9.8129 6.08921 9.97072 5.92779 9.97072 5.73009V4.62145C9.97072 4.42305 9.8129 4.26162 9.61807 4.26162ZM5.56849 4.26162H4.05383C3.85899 4.26162 3.70117 4.42305 3.70117 4.62074V5.72867C3.70117 5.92708 3.85899 6.08779 4.05383 6.08779H5.56779L6.46514 5.17399L5.56849 4.26162Z" fill="#8899A6"/>
</svg>
