<svg width="15" height="18" viewBox="0 0 15 18" fill="none" xmlns="http://www.w3.org/2000/svg">
<path d="M8.33126 10.1053C8.33126 10.1053 14.208 4.56209 14.785 4.07811C15.362 3.59413 14.4218 2.94849 13.2683 2.94849H1.72985C1.15285 2.94849 -0.569441 3.31448 0.295805 4.16195C0.913325 4.76592 6.79259 10.1053 6.79259 10.1053V15.1876C6.79259 15.1876 4.4415 16.3624 3.97272 16.635C3.46803 16.9171 3.80346 17.369 4.00503 17.4468C4.34149 17.5763 5.16057 18.0001 7.48243 18.0001C9.86275 18.0001 10.6634 17.5412 10.9521 17.4468C11.0634 17.4107 11.643 16.9789 10.9578 16.5818C9.73812 15.8749 8.33126 15.1876 8.33126 15.1876V10.1053Z" fill="#8899A6"/>
<path d="M14.999 3.6725C14.999 2.85817 11.6411 2.19897 7.49902 2.19897C3.35692 2.19897 -0.000976562 2.85817 -0.000976562 3.6725C-0.000976562 4.05206 0.735534 4.39697 1.93519 4.65803C3.34358 5.83334 5.67826 7.71956 6.87278 8.68099C7.33439 9.05302 7.96781 8.99377 8.30939 8.74275C8.56738 8.55347 11.6975 5.90966 13.2178 4.6244C14.3271 4.36785 14.999 4.03599 14.999 3.6725Z" fill="#CCD6DD"/>
<path d="M7.23826 8.23605C7.1167 8.1733 7.21261 7.83441 7.36546 7.56933L11.1855 0.280507C11.3393 0.01492 11.683 -0.078462 11.9538 0.0716521C12.2251 0.221766 12.32 0.558142 12.1671 0.823729L7.72192 7.79475C7.64498 7.92729 7.37623 8.30684 7.23826 8.23605Z" fill="#662113"/>
<path d="M9.73908 3.87974C10.3202 4.20055 10.7628 5.20315 10.3545 5.91105C9.94577 6.61945 8.83947 6.76404 8.25836 6.44272C7.67777 6.12141 7.19924 5.18006 7.64341 4.41141C8.08706 3.64277 9.15797 3.55842 9.73908 3.87974Z" fill="#5C913B"/>
<path d="M7.20144 5.33874C5.26528 5.33874 3.42605 5.09273 1.69453 4.60021L1.62837 4.58164C1.35603 4.50482 1.19959 4.22618 1.27807 3.9601C1.35603 3.6935 1.63965 3.53988 1.91302 3.61669L1.98073 3.63627C5.33144 4.58917 9.13145 4.56758 13.2736 3.57C13.5521 3.50473 13.827 3.6684 13.8941 3.9375C13.9619 4.2066 13.7941 4.47872 13.5192 4.54499C11.3194 5.07415 9.20889 5.33874 7.20144 5.33874Z" fill="white"/>
</svg>
