<svg width="17" height="18" viewBox="0 0 17 18" fill="none" xmlns="http://www.w3.org/2000/svg">
<path d="M15.4372 5.29419H1.56284C0.699629 5.29419 0 6.00519 0 6.88242C0 7.75966 0.699629 8.47066 1.56284 8.47066C1.65765 8.47066 1.74881 8.45848 1.83894 8.4426L1.8306 8.47066L2.16244 15.8845C2.21402 17.0482 3.19444 18.0001 4.34051 18.0001H12.6756C13.8217 18.0001 14.8021 17.0482 14.8542 15.8845L15.1855 8.47066L15.1777 8.44419C15.2626 8.45848 15.3481 8.47066 15.4372 8.47066C16.3004 8.47066 17 7.75966 17 6.88242C17 6.00519 16.2999 5.29419 15.4372 5.29419Z" fill="#E1E8ED"/>
<path d="M14.0657 8.4707V17.4649C14.5153 17.0763 14.818 16.5141 14.843 15.8841L15.1972 8.4707H14.0657ZM10.94 8.4707H12.5029V18.0001H10.94V8.4707ZM7.81437 18.0001V8.4707H9.37721V18.0001H7.81437ZM4.6887 8.4707H6.25154V18.0001H4.6887V8.4707ZM1.81934 8.4707L2.17358 15.8841C2.20171 16.5945 2.57783 17.2224 3.12587 17.6068V8.4707H1.81934Z" fill="#DA2F47"/>
<path opacity="0.6" d="M1.81934 8.4707L1.86987 9.52953H15.1462L15.1972 8.4707H1.81934Z" fill="#99AAB5"/>
<path d="M15.2434 5.33118C15.2658 5.23376 15.2804 5.13371 15.2804 5.02941C15.2804 4.67259 15.1397 4.34965 14.9136 4.11194C15.1335 3.97112 15.2804 3.72441 15.2804 3.44118C15.2804 3.00229 14.9303 2.64706 14.4989 2.64706C14.3963 2.64706 14.2984 2.66824 14.2083 2.70529C14.1358 2.43371 13.9275 2.22194 13.6602 2.14835C13.6967 2.05676 13.7175 1.95776 13.7175 1.85294C13.7175 1.41406 13.3675 1.05882 12.9361 1.05882C12.8366 1.05882 12.7423 1.07947 12.6548 1.11388C12.5553 0.483353 12.0219 0 11.3733 0C10.6538 0 10.0709 0.592412 10.0709 1.32353C10.0709 1.42253 10.0834 1.51835 10.1037 1.61153C9.77033 1.67135 9.48381 1.85982 9.28949 2.12453C9.05194 1.80106 8.67582 1.58824 8.2476 1.58824C7.52818 1.58824 6.94524 2.18065 6.94524 2.91176L6.94576 2.91812C6.78739 2.79635 6.6035 2.709 6.40033 2.67141C6.28885 2.05518 5.76009 1.58824 5.12193 1.58824C4.48221 1.58824 3.95241 2.05782 3.84301 2.67618C3.74976 2.66135 3.65651 2.64706 3.5591 2.64706C2.55211 2.64706 1.73579 3.47665 1.73579 4.5C1.73579 4.78853 1.80612 5.058 1.92177 5.30153C1.52585 5.34018 1.21484 5.67529 1.21484 6.08823C1.21484 6.52712 1.56492 6.88235 1.99626 6.88235H15.0199C15.4512 6.88235 15.8013 6.52712 15.8013 6.08823C15.8013 5.72929 15.5653 5.42912 15.2434 5.33118Z" fill="#FFD983"/>
<path d="M13.7172 4.23534C14.0049 4.23534 14.2382 3.99831 14.2382 3.70593C14.2382 3.41354 14.0049 3.17651 13.7172 3.17651C13.4295 3.17651 13.1963 3.41354 13.1963 3.70593C13.1963 3.99831 13.4295 4.23534 13.7172 4.23534Z" fill="#FFAC33"/>
<path d="M11.8942 3.17637C12.3258 3.17637 12.6756 2.82083 12.6756 2.38225C12.6756 1.94367 12.3258 1.58813 11.8942 1.58813C11.4626 1.58813 11.1128 1.94367 11.1128 2.38225C11.1128 2.82083 11.4626 3.17637 11.8942 3.17637Z" fill="#FFAC33"/>
<path d="M5.38276 3.7058C5.67047 3.7058 5.90371 3.46877 5.90371 3.17638C5.90371 2.884 5.67047 2.64697 5.38276 2.64697C5.09505 2.64697 4.86182 2.884 4.86182 3.17638C4.86182 3.46877 5.09505 3.7058 5.38276 3.7058Z" fill="#FFAC33"/>
<path d="M15.2805 6.08828C15.2805 5.64993 14.9304 5.29416 14.499 5.29416C14.1563 5.29416 13.8677 5.52022 13.7624 5.83257C13.7473 5.83151 13.7338 5.82357 13.7176 5.82357C13.4301 5.82357 13.1967 6.06075 13.1967 6.35298H15.2325C15.2617 6.26987 15.2805 6.18145 15.2805 6.08828ZM4.08014 5.82357C4.18329 5.82357 4.28071 5.84475 4.37083 5.88181C4.46043 5.54404 4.76154 5.29416 5.12203 5.29416C5.55338 5.29416 5.90345 5.6494 5.90345 6.08828C5.90345 6.18145 5.8847 6.26987 5.85552 6.35298H8.03516C8.00599 6.26987 7.98723 6.18145 7.98723 6.08828C7.98723 5.6494 8.33731 5.29416 8.76865 5.29416C8.89211 5.29416 9.00776 5.32593 9.11143 5.37781C9.06038 5.27245 9.02912 5.15493 9.02912 5.02945C9.02912 4.59057 9.3792 4.23534 9.81054 4.23534C10.2419 4.23534 10.592 4.59057 10.592 5.02945C10.592 5.13428 10.5711 5.23328 10.5347 5.32487C10.867 5.41593 11.1129 5.7214 11.1129 6.08828C11.1129 6.18145 11.0941 6.26987 11.065 6.35298H12.6111L12.3163 6.08828C12.5351 5.89398 12.6757 5.61234 12.6757 5.29416C12.6757 4.70969 12.209 4.23534 11.6338 4.23534C11.4369 4.23534 11.2546 4.2941 11.0973 4.39098C11.1051 4.33963 11.1129 4.28881 11.1129 4.23534C11.1129 3.65087 10.6461 3.17651 10.071 3.17651C9.65009 3.17651 9.28907 3.43169 9.12498 3.79698C9.01766 3.74087 8.89784 3.70593 8.76865 3.70593C8.33731 3.70593 7.98723 4.06169 7.98723 4.50004C7.98723 4.60487 8.00807 4.70387 8.04454 4.79545C7.71217 4.88704 7.46629 5.19251 7.46629 5.55887C7.46629 5.66369 7.48712 5.76269 7.52359 5.85428C7.40377 5.8871 7.29542 5.94798 7.20581 6.03004C7.06724 5.90298 6.88595 5.82357 6.68487 5.82357C6.56141 5.82357 6.44576 5.85534 6.34157 5.90775C6.39314 5.80187 6.4244 5.68434 6.4244 5.55887C6.4244 5.12051 6.07432 4.76475 5.64298 4.76475C5.53983 4.76475 5.44242 4.78593 5.35229 4.82298C5.26269 4.48522 4.96158 4.23534 4.60109 4.23534C4.16975 4.23534 3.81967 4.5911 3.81967 5.02945C3.81967 5.13428 3.84051 5.23328 3.87697 5.32487C3.75716 5.35769 3.6488 5.41857 3.5592 5.50063C3.42063 5.37357 3.23934 5.29416 3.03825 5.29416C2.60691 5.29416 2.25684 5.64993 2.25684 6.08828C2.25684 6.18145 2.27559 6.26987 2.30476 6.35298H3.34665C3.45449 6.0454 3.74049 5.82357 4.08014 5.82357Z" fill="#FFAC33"/>
<path d="M1.21484 6.35303V6.88244C1.21484 7.17467 1.44823 7.41185 1.73579 7.41185H15.2804C15.5684 7.41185 15.8013 7.17467 15.8013 6.88244V6.35303H1.21484Z" fill="white"/>
</svg>
