<svg width="19" height="18" viewBox="0 0 19 18" fill="none" xmlns="http://www.w3.org/2000/svg">
<path d="M18.0548 0.00605368L6.22303 1.34394C5.70317 1.40289 5.27778 1.8704 5.27778 2.38342V12.0967C4.7975 11.9048 4.26181 11.7941 3.69444 11.7941C1.65458 11.7941 0 13.1827 0 14.8971C0 16.6109 1.65458 18 3.69444 18C5.73431 18 7.38889 16.6109 7.38889 14.8971V5.34983L16.8889 4.2757V11.0629C16.4086 10.8705 15.8729 10.7598 15.3056 10.7598C13.2657 10.7598 11.6111 12.1484 11.6111 13.8627C11.6111 15.5766 13.2657 16.9657 15.3056 16.9657C17.3454 16.9657 19 15.5766 19 13.8627V0.831953C19 0.318933 18.5746 -0.052385 18.0548 0.00605368Z" fill="#5DADEC"/>
</svg>
