<svg width="32" height="32" viewBox="0 0 32 32" fill="none" xmlns="http://www.w3.org/2000/svg">
<path d="M14.524 4.95194H4.78312C4.04499 4.95194 3.33709 5.24516 2.81516 5.7671C2.29322 6.28903 2 6.99693 2 7.73506V27.2169C2 27.955 2.29322 28.6629 2.81516 29.1848C3.33709 29.7068 4.04499 30 4.78312 30H24.2649C25.0031 30 25.711 29.7068 26.2329 29.1848C26.7548 28.6629 27.0481 27.955 27.0481 27.2169V17.476M24.9607 2.8646C25.5143 2.31101 26.2652 2 27.0481 2C27.831 2 28.5818 2.31101 29.1354 2.8646C29.689 3.4182 30 4.16904 30 4.95194C30 5.73485 29.689 6.48568 29.1354 7.03928L15.9156 20.2591L10.3494 21.6506L11.7409 16.0844L24.9607 2.8646Z" stroke="#006554" stroke-width="2.6" stroke-linecap="round" stroke-linejoin="round"/>
</svg>
