<svg width="19" height="18" viewBox="0 0 19 18" fill="none" xmlns="http://www.w3.org/2000/svg">
<path d="M3.69482 5.65723H15.3059V14.9144H3.69482V5.65723Z" fill="#292F33"/>
<path d="M4.22244 14.9141C4.22244 15.4819 3.90736 15.9427 3.51891 15.9427H2.81486C2.42641 15.9427 2.11133 15.4819 2.11133 14.9141V5.65699C2.11133 5.08922 2.42641 4.62842 2.81486 4.62842H3.51838C3.90736 4.62842 4.22244 5.08922 4.22244 5.65699V14.9141ZM16.8891 14.9141C16.8891 15.4819 16.574 15.9427 16.1856 15.9427H15.4815C15.0931 15.9427 14.778 15.4819 14.778 14.9141V5.65699C14.778 5.08922 15.0931 4.62842 15.4815 4.62842H16.1856C16.574 4.62842 16.8891 5.08922 16.8891 5.65699V14.9141ZM8.44466 14.9141C8.44466 15.4819 8.12958 15.9427 7.74113 15.9427H7.03761C6.64863 15.9427 6.33355 15.4819 6.33355 14.9141V5.65699C6.33355 5.08922 6.64863 4.62842 7.03708 4.62842H7.74061C8.12958 4.62842 8.44466 5.08922 8.44466 5.65699V14.9141ZM12.6669 14.9141C12.6669 15.4819 12.3513 15.9427 11.9628 15.9427H11.2598C10.8714 15.9427 10.5558 15.4819 10.5558 14.9141V5.65699C10.5558 5.08922 10.8714 4.62842 11.2598 4.62842H11.9628C12.3513 4.62842 12.6669 5.08922 12.6669 5.65699V14.9141Z" fill="#CCD6DD"/>
<path d="M17.4168 15.4287C17.4168 15.9965 16.9439 16.4573 16.3613 16.4573H2.63905C2.05638 16.4573 1.5835 15.9965 1.5835 15.4287C1.5835 14.8609 2.05638 14.4001 2.63905 14.4001H16.3613C16.9439 14.4001 17.4168 14.8609 17.4168 15.4287Z" fill="#9AAAB4"/>
<path d="M18.4723 16.4573C18.4723 17.0251 17.9994 17.4859 17.4167 17.4859H1.58339C1.00072 17.4859 0.527832 17.0251 0.527832 16.4573C0.527832 15.8895 1.00072 15.4287 1.58339 15.4287H17.4167C17.9994 15.4287 18.4723 15.8895 18.4723 16.4573Z" fill="#CCD6DD"/>
<path d="M19 17.2285C19 17.6543 18.6453 17.9999 18.2083 17.9999H0.791667C0.354139 17.9999 0 17.6543 0 17.2285C0 16.8026 0.354139 16.457 0.791667 16.457H18.2083C18.6453 16.457 19 16.8026 19 17.2285Z" fill="#E1E8ED"/>
<path d="M17.4168 5.14283C17.4168 4.57506 16.9123 4.11426 16.2911 4.11426H2.63905C2.0168 4.11426 1.5835 4.57506 1.5835 5.14283C1.5835 5.52906 1.78722 5.8618 2.11127 6.03769V6.68569H4.22238V6.1714H6.3335V6.68569H8.44461V6.1714H10.5557V6.68569H12.6668V6.1714H14.7779V6.68569H16.8891V6.01094C17.2052 5.82889 17.4168 5.50952 17.4168 5.14283Z" fill="#9AAAB4"/>
<path d="M1.05518 4.34263C1.05518 3.8124 1.58929 3.6 1.58929 3.6L9.45529 0L17.3968 3.6C17.3968 3.6 17.9441 3.7188 17.9441 4.34571V4.62857H1.05518V4.34263Z" fill="#CCD6DD"/>
<path d="M9.49992 1.30737C9.49992 1.30737 4.05378 3.80937 3.50964 4.03412C2.9655 4.25886 3.14759 4.62863 3.51017 4.62863H15.4622C16.0227 4.62863 15.8908 4.21103 15.4459 3.98577C15.0004 3.76052 9.49992 1.30737 9.49992 1.30737Z" fill="#9AAAB4"/>
<path d="M17.9441 4.62854C17.9441 4.91243 17.7081 5.14283 17.4163 5.14283H1.58295C1.29162 5.14283 1.05518 4.91243 1.05518 4.62854C1.05518 4.34466 1.29162 4.11426 1.58295 4.11426L17.4163 4.11734C17.7081 4.11734 17.9441 4.34466 17.9441 4.62854Z" fill="#CCD6DD"/>
</svg>
