<svg width="24" height="18" viewBox="0 0 24 18" fill="none" xmlns="http://www.w3.org/2000/svg">
<path d="M21.3333 2H2.66667C1.194 2 0 3.194 0 4.66667V14.6667C0 16.1393 1.194 17.3333 2.66667 17.3333H10.2773C10.624 17.7307 11.262 18 12 18C12.738 18 13.3767 17.7307 13.7227 17.3333H21.3333C22.806 17.3333 24 16.1393 24 14.6667V4.66667C24 3.194 22.806 2 21.3333 2Z" fill="#226699"/>
<path d="M13.3332 15.3333C13.3332 16.0693 12.7358 16.6667 11.9998 16.6667C11.2638 16.6667 10.6665 16.0693 10.6665 15.3333V3.33333C10.6665 2.59733 11.2638 2 11.9998 2C12.7358 2 13.3332 2.59733 13.3332 3.33333V15.3333Z" fill="#292F33"/>
<path d="M12.0002 14.6663C12.0002 15.4023 11.4028 15.9997 10.6668 15.9997H2.66683C1.93083 15.9997 1.3335 15.4023 1.3335 14.6663V2.66634C1.3335 1.93034 1.93083 1.33301 2.66683 1.33301H10.6668C11.4028 1.33301 12.0002 1.93034 12.0002 2.66634V14.6663Z" fill="#99AAB5"/>
<path d="M11.9998 14.6667C11.3338 13.3347 9.56184 13.3333 9.33317 13.3333C7.99984 13.3333 5.99984 14.6667 3.99984 14.6667C3.33317 14.6667 2.6665 14.0693 2.6665 13.3333V2.66667C2.6665 1.93067 3.33317 1.33333 3.99984 1.33333C6.16984 1.33333 7.99984 0 9.33317 0C11.3332 0 11.9998 1.264 11.9998 2V14.6667Z" fill="#E1E8ED"/>
<path d="M22.6667 14.6663C22.6667 15.4023 22.0693 15.9997 21.3333 15.9997H13.3333C12.5973 15.9997 12 15.4023 12 14.6663V2.66634C12 1.93034 12.5973 1.33301 13.3333 1.33301H21.3333C22.0693 1.33301 22.6667 1.93034 22.6667 2.66634V14.6663Z" fill="#99AAB5"/>
<path d="M12 14.6667C12.666 13.3347 14.438 13.3333 14.6667 13.3333C16 13.3333 18 14.6667 20 14.6667C20.6667 14.6667 21.3333 14.0693 21.3333 13.3333V2.66667C21.3333 1.93067 20.6667 1.33333 20 1.33333C17.8293 1.33333 16 0 14.6667 0C12.6667 0 12 1.264 12 2V14.6667Z" fill="#CCD6DD"/>
</svg>
