<svg width="18" height="18" viewBox="0 0 18 18" fill="none" xmlns="http://www.w3.org/2000/svg">
<path d="M1.45555 13.1584L3.18393 14.8894L2.7191 15.3544L0.990723 13.624L1.45555 13.1584Z" fill="#77B255"/>
<path d="M3.13913 14.8435L4.86701 16.5744L4.40218 17.04L2.6748 15.309L3.13913 14.8435Z" fill="#FFD983"/>
<path d="M3.09422 12.1453L4.82261 13.8762L4.35778 14.3417L2.62939 12.6108L3.09422 12.1453Z" fill="#FFAC33"/>
<path d="M4.46628 13.5196L6.19466 15.2505L5.72983 15.716L4.00195 13.9851L4.46628 13.5196ZM6.43488 8.79932L8.16276 10.5303L7.69793 10.9958L5.97005 9.26483L6.43488 8.79932Z" fill="#EA596E"/>
<path d="M7.80711 10.1743L9.5355 11.9048L9.07067 12.3703L7.34229 10.6398L7.80711 10.1743Z" fill="#FFAC33"/>
<path d="M7.47409 7.17236L9.20247 8.90331L8.73815 9.36882L7.00977 7.63788L7.47409 7.17236Z" fill="#77B255"/>
<path d="M9.13963 8.83984L10.868 10.5708L10.4032 11.0363L8.6748 9.30536L9.13963 8.83984Z" fill="#FFD983"/>
<path d="M8.80663 5.83765L10.535 7.56859L10.0702 8.0336L8.3418 6.30317L8.80663 5.83765Z" fill="#FFAC33"/>
<path d="M10.4721 7.50573L12.2005 9.23617L11.7357 9.70168L10.0078 7.97074L10.4721 7.50573ZM12.2166 2.42285L13.945 4.15379L13.4802 4.61881L11.7518 2.88837L12.2166 2.42285Z" fill="#EA596E"/>
<path d="M13.8818 4.09082L15.6102 5.82126L15.1454 6.28678L13.417 4.55583L13.8818 4.09082Z" fill="#FFAC33"/>
<path d="M13.539 1.05737L15.2674 2.78832L14.8026 3.25383L13.0742 1.52289L13.539 1.05737Z" fill="#77B255"/>
<path d="M15.2246 2.74585L16.953 4.47629L16.4881 4.94181L14.7598 3.21137L15.2246 2.74585Z" fill="#FFD983"/>
<path d="M12.4858 0.330857C11.2167 1.60183 11.1759 3.43011 11.2792 5.27655C11.5315 5.29067 11.7838 5.30731 12.0356 5.32396C12.232 5.33707 12.4259 5.34968 12.6193 5.36128C12.5195 3.70397 12.519 2.18436 13.4281 1.274C13.7942 0.919437 13.909 0.440301 13.6532 0.181568C13.3837 -0.0907833 12.8766 -0.069096 12.4858 0.330857Z" fill="#9266CC"/>
<path d="M6.55537 12.8579L6.47832 11.5163C6.46522 11.2919 6.44911 11.0629 6.44105 10.8445C6.29198 10.6952 5.19916 10.6685 5.10498 10.7628C5.11153 10.9847 5.12865 11.2086 5.14074 11.4321C5.15484 11.6853 5.20419 12.5795 5.21577 12.7736C5.24297 13.2326 5.26412 13.6845 5.25908 14.1132C5.38952 14.2438 6.45314 14.3336 6.59113 14.1949C6.59868 13.7551 6.58005 13.3067 6.55537 12.8579Z" fill="#3B88C3"/>
<path d="M6.59278 14.1947L5.25873 14.113C5.24563 15.2272 5.06534 16.2036 4.40914 16.8608C4.14878 17.1215 4.14878 17.5437 4.40914 17.8044C4.53907 17.9345 4.70979 18.0001 4.88001 18.0001C5.05023 18.0001 5.22096 17.935 5.35089 17.8044C6.57113 16.5829 6.59329 14.1862 6.59278 14.1947Z" fill="#55ACEE"/>
<path d="M12.7034 6.70338C12.4511 6.68926 12.1983 6.67262 11.9465 6.65597C11.7506 6.64286 11.5562 6.63025 11.3633 6.61865C11.4631 8.27545 11.4636 9.79558 10.554 10.7059C9.64553 11.6158 8.13018 11.6163 6.47784 11.5164C6.28345 11.5048 5.39055 11.4458 5.14026 11.4317C3.29353 11.3278 1.46544 11.3682 0.194833 12.6406C-0.0650283 12.9009 -0.0650283 13.323 0.195337 13.5838C0.325268 13.7139 0.495991 13.7795 0.66621 13.7795C0.836429 13.7795 1.00715 13.7144 1.13708 13.5838C2.04609 12.6739 3.56195 12.6729 5.2153 12.7728C5.40919 12.7844 6.30359 12.8434 6.55489 12.8575C8.3991 12.9609 10.2257 12.9206 11.4958 11.6491C12.7654 10.3781 12.8067 8.54982 12.7034 6.70338Z" fill="#9266CC"/>
<path d="M12.7034 6.70301C12.6893 6.45033 12.6304 5.5546 12.6188 5.36143C12.6052 5.13447 12.5941 4.91054 12.5866 4.68963C12.4173 4.67904 11.529 4.62255 11.2505 4.60742C11.257 4.82934 11.2666 5.05277 11.2787 5.2762C11.2928 5.52888 11.3517 6.42461 11.3633 6.61828C11.391 7.07926 11.4091 7.52813 11.4041 7.95784C11.5718 7.96844 12.4586 8.02442 12.7361 8.03955C12.7437 7.59975 12.7286 7.15239 12.7034 6.70301Z" fill="#744EAA"/>
<path d="M17.8538 4.37309C17.6423 4.15319 17.1563 4.06998 16.7 4.55113C15.791 5.46149 14.2741 5.46199 12.6188 5.36163C12.4254 5.35003 11.531 5.29051 11.2787 5.27639C9.43549 5.173 7.60941 5.21436 6.34031 6.48533C5.22482 7.60247 5.05863 9.15033 5.10496 10.7622C5.38346 10.7774 6.27283 10.8339 6.44104 10.844C6.39168 9.45446 6.49794 8.21425 7.28256 7.42847C8.19158 6.51811 9.70895 6.51811 11.3638 6.61797C11.5567 6.62957 12.4516 6.68858 12.7039 6.7027C14.5476 6.8061 16.3732 6.76524 17.6423 5.49427C18.0885 5.05599 18.0653 4.59299 17.8538 4.37309Z" fill="#55ACEE"/>
</svg>
