<svg width="16" height="18" viewBox="0 0 16 18" fill="none" xmlns="http://www.w3.org/2000/svg">
<path d="M15.4778 1.5C11.9877 0 7.99902 0 7.99902 0C7.99902 0 4.01034 0 0.520248 1.5C-0.975507 9 0.520248 15.5 7.99902 18C15.4778 15.5 16.9736 9 15.4778 1.5Z" fill="#CCD6DD"/>
<path d="M7.99892 16.942C2.22131 14.8645 0.00211167 9.9155 1.39765 2.222C4.54023 1.0145 7.96302 1 7.99892 1C8.03432 1 11.4681 1.02 14.6002 2.222C15.9957 9.9155 13.7765 14.8645 7.99892 16.942Z" fill="#55ACEE"/>
<path d="M14.6003 2.222C11.4682 1.02 8.03442 1 7.99902 1V16.942C13.7766 14.8645 15.9958 9.9155 14.6003 2.222Z" fill="#226699"/>
</svg>
