<svg width="36" height="37" viewBox="0 0 36 37" fill="none" xmlns="http://www.w3.org/2000/svg">
<path d="M16.4 22.2C21.2 22.2 29.2 28.6 29.2 28.6V3C29.2 3 21.2 9.4 16.4 9.4M16.4 22.2V9.4M16.4 22.2H8.4C4.8656 22.2 2 20.7776 2 15.8C2 10.8224 4.8656 9.4 8.4 9.4H16.4M6.8 22.2L11.6 35H18L13.2 22.2H6.8ZM29.2 20.6C29.8303 20.6 30.4545 20.4758 31.0369 20.2346C31.6192 19.9934 32.1484 19.6398 32.5941 19.1941C33.0398 18.7484 33.3934 18.2192 33.6346 17.6369C33.8758 17.0545 34 16.4303 34 15.8C34 15.1697 33.8758 14.5455 33.6346 13.9631C33.3934 13.3808 33.0398 12.8516 32.5941 12.4059C32.1484 11.9602 31.6192 11.6066 31.0369 11.3654C30.4545 11.1242 29.8303 11 29.2 11V20.6ZM18.3328 28.1136C20.2466 28.3263 20.034 28.6 20.2466 26.3416L18.3328 28.1136Z" stroke="#006554" stroke-width="2.6"/>
</svg>
