<svg width="18" height="18" viewBox="0 0 18 18" fill="none" xmlns="http://www.w3.org/2000/svg">
<path d="M15.3033 14.8695C15.1249 14.8695 14.9522 14.7751 14.8579 14.6066L12.6873 10.9669C12.5469 10.717 12.6017 10.4039 12.8472 10.2605L15.3884 8.69525C15.4683 8.64882 15.6426 8.60864 15.7287 8.60864C15.9071 8.60864 16.0731 8.71195 16.1674 8.88047L17.7599 11.5528L17.8439 12.7173C17.9844 12.9673 17.3529 13.3351 17.1069 13.478L15.5565 14.8006C15.477 14.8476 15.3894 14.8695 15.3033 14.8695Z" fill="#3E721D"/>
<path d="M11.7147 16.4349C11.4313 16.4349 11.2021 16.2017 11.2021 15.9132V12.7827C11.2021 12.4942 11.4313 12.261 11.7147 12.261H16.8401C17.7883 12.261 17.6345 11.3318 17.6345 11.3318C17.6345 11.3318 17.8021 11.625 17.8267 11.6714C17.9943 11.9918 18.1055 12.4812 17.8441 12.9784L16.2609 16.1725C16.1866 16.3233 16.0092 16.4349 15.815 16.4349H11.7147Z" fill="#77B255"/>
<path d="M11.2022 18.0001C11.0689 18.0001 10.9377 17.9469 10.8398 17.8473L7.76456 14.7168C7.56416 14.5128 7.56416 14.1831 7.76456 13.9791L10.8398 10.8487C10.9377 10.749 11.0689 10.6958 11.2022 10.6958C11.2683 10.6958 11.3349 10.7083 11.3985 10.7355C11.5901 10.8158 11.7147 11.0068 11.7147 11.2175V17.4784C11.7147 17.6892 11.5901 17.8801 11.3985 17.9605C11.3349 17.9876 11.2683 18.0001 11.2022 18.0001Z" fill="#77B255"/>
<path d="M10.4809 1.46008C10.5619 1.62182 10.5578 1.82112 10.4533 1.98391L8.25294 5.60478C8.09764 5.84634 7.79883 5.93817 7.56203 5.78008L5.03829 4.18669C4.96141 4.13504 4.8466 3.99521 4.80765 3.91747C4.72667 3.75573 4.74153 3.55851 4.84609 3.39573L6.46161 0.737992L7.44261 0.133296C7.59791 -0.108269 8.20629 0.297644 8.4436 0.456253L10.3046 1.26182C10.3825 1.31347 10.442 1.38286 10.4809 1.46008Z" fill="#3E721D"/>
<path d="M13.4802 4.00435C13.6089 4.26156 13.5095 4.57513 13.2563 4.70661L10.5157 6.12783C10.2635 6.25826 9.95499 6.15652 9.82686 5.89983L7.49891 1.25113C7.06889 0.390783 6.3252 0.952174 6.3252 0.952174C6.3252 0.952174 6.50561 0.667304 6.53534 0.623478C6.73984 0.326087 7.11707 0.00365217 7.67112 0.0146087L11.1866 0C11.3527 0 11.5305 0.109043 11.6192 0.285391L13.4802 4.00435Z" fill="#77B255"/>
<path d="M15.0827 3.7589C15.1431 3.87942 15.156 4.02238 15.1134 4.15646L13.7701 8.36742C13.6829 8.64133 13.3938 8.79107 13.1243 8.70238L8.98807 7.33386C8.85583 7.29055 8.75025 7.19559 8.68926 7.07507C8.65902 7.01559 8.64005 6.94881 8.63441 6.8789C8.61801 6.66812 8.72872 6.46881 8.91324 6.37333L14.3933 3.5309C14.5778 3.4349 14.8008 3.46099 14.9586 3.59872C15.0114 3.64359 15.0529 3.6989 15.0827 3.7589Z" fill="#77B255"/>
<path d="M1.65635 12.5434C1.74912 12.3884 1.91774 12.2877 2.10841 12.2934L6.29124 12.2961C6.57467 12.3049 6.80839 12.5152 6.80121 12.8032L6.79404 15.8267C6.79148 15.9206 6.73458 16.0938 6.68999 16.1679C6.59722 16.3228 6.42399 16.4141 6.23332 16.4084L3.16321 16.4042L2.14172 15.8726C1.85931 15.8637 1.87879 15.1239 1.88597 14.8364L1.58203 12.7995C1.58408 12.7061 1.61176 12.618 1.65635 12.5434Z" fill="#3E721D"/>
<path d="M2.20781 8.6097C2.35491 8.36344 2.67012 8.28518 2.91204 8.43492L5.53932 10.0622C5.78175 10.212 5.85812 10.5323 5.71102 10.7791L3.04735 15.2363C2.55532 16.0607 3.41484 16.4102 3.41484 16.4102C3.41484 16.4102 3.08169 16.4029 3.02993 16.3998C2.6732 16.38 2.20525 16.2219 1.92335 15.7367L0.0648884 12.7001C-0.0227557 12.5567 -0.0242933 12.3443 0.0766768 12.1753L2.20781 8.6097Z" fill="#77B255"/>
<path d="M1.16018 7.35068C1.22988 7.23381 1.34213 7.14825 1.47693 7.11381L5.70281 6.0672C5.97804 5.99833 6.25481 6.16999 6.32196 6.45016L7.35062 10.7514C7.38342 10.8891 7.35933 11.03 7.29014 11.1463C7.25631 11.2032 7.2107 11.2549 7.15483 11.2966C6.98774 11.4208 6.76325 11.4302 6.58591 11.3206L1.33239 8.06755C1.15505 7.95747 1.06023 7.74981 1.09201 7.54164C1.10226 7.47173 1.12584 7.40807 1.16018 7.35068Z" fill="#77B255"/>
</svg>
