<svg width="38" height="30" viewBox="0 0 38 30" fill="none" xmlns="http://www.w3.org/2000/svg">
<path d="M24.6667 2V5.71429M24.6667 13.1429V16.8571M24.6667 24.2857V28M5.77778 2C4.77585 2 3.81496 2.39133 3.10649 3.08789C2.39801 3.78445 2 4.7292 2 5.71429V11.2857C3.00193 11.2857 3.96282 11.677 4.67129 12.3736C5.37976 13.0702 5.77778 14.0149 5.77778 15C5.77778 15.9851 5.37976 16.9298 4.67129 17.6264C3.96282 18.323 3.00193 18.7143 2 18.7143V24.2857C2 25.2708 2.39801 26.2155 3.10649 26.9121C3.81496 27.6087 4.77585 28 5.77778 28H32.2222C33.2242 28 34.185 27.6087 34.8935 26.9121C35.602 26.2155 36 25.2708 36 24.2857V18.7143C34.9981 18.7143 34.0372 18.323 33.3287 17.6264C32.6202 16.9298 32.2222 15.9851 32.2222 15C32.2222 14.0149 32.6202 13.0702 33.3287 12.3736C34.0372 11.677 34.9981 11.2857 36 11.2857V5.71429C36 4.7292 35.602 3.78445 34.8935 3.08789C34.185 2.39133 33.2242 2 32.2222 2H5.77778Z" stroke="#006554" stroke-width="2.6" stroke-linecap="round" stroke-linejoin="round"/>
</svg>
