<svg width="18" height="18" viewBox="0 0 18 18" fill="none" xmlns="http://www.w3.org/2000/svg">
<path d="M15.2306 11.925C15.0298 12.1264 14.7053 12.1264 14.5045 11.925L13.7783 11.1989C13.577 10.9981 13.577 10.673 13.7783 10.4727L15.2306 9.02033C15.4314 8.81953 15.756 8.81953 15.9568 9.02033L16.683 9.74651C16.8843 9.94731 16.8843 10.2724 16.683 10.4727L15.2306 11.925ZM7.52718 4.22158C7.32637 4.4229 7.0018 4.4229 6.801 4.22158L6.07482 3.4954C5.8735 3.2946 5.8735 2.97003 6.07482 2.76922L7.52718 1.31686C7.72798 1.11606 8.05255 1.11606 8.25336 1.31686L8.97954 2.04304C9.18085 2.24385 9.18085 2.56842 8.97954 2.76922L7.52718 4.22158Z" fill="#66757F"/>
<path d="M0.850901 10.9864C1.87803 10.9864 6.50011 11.5 6.50011 11.5C6.50011 11.5 7.01367 16.122 7.01367 17.1492C7.01367 18.1763 5.98655 18.1763 5.47298 17.6627C4.95942 17.1492 3.41872 14.5813 3.41872 14.5813C3.41872 14.5813 0.850901 13.0407 0.337337 12.5271C-0.176227 12.0135 -0.176227 10.9864 0.850901 10.9864ZM1.87803 2.78939C3.41872 2.76936 14.7171 3.28292 14.7171 3.28292C14.7171 3.28292 15.1917 14.5813 15.2112 16.122C15.2307 17.6627 13.7922 18.1773 13.2278 16.1226C12.6634 14.0678 10.6086 7.39144 10.6086 7.39144C10.6086 7.39144 3.44183 5.12303 1.87546 4.77123C-0.176227 4.31005 0.336823 2.8089 1.87803 2.78939Z" fill="#55ACEE"/>
<path d="M13.6901 1.2286C14.7172 0.201474 17.2851 -0.312091 17.7986 0.201474C18.3122 0.715038 17.7986 3.28286 16.7715 4.30999C15.7444 5.33712 7.01378 13.5541 7.01378 13.5541C7.01378 13.5541 3.67561 15.8652 2.90526 15.0948C2.13491 14.3245 4.44595 10.9863 4.44595 10.9863C4.44595 10.9863 12.663 2.25573 13.6901 1.2286Z" fill="#CCD6DD"/>
<path d="M7.01387 10.9862C7.01387 10.9862 7.27065 11.243 4.95961 13.5541C2.64857 15.8651 2.39179 15.6083 2.39179 15.6083C2.39179 15.6083 2.13501 15.3515 4.44605 13.0405C6.75709 10.7295 7.01387 10.9862 7.01387 10.9862ZM14.7173 1.74208C15.5683 1.74208 16.258 2.4318 16.258 3.28277H16.6714C16.73 3.121 16.7716 2.95152 16.7716 2.76921C16.7716 1.91823 16.0819 1.22852 15.2309 1.22852C15.0486 1.22852 14.8791 1.27011 14.7173 1.32866V1.74208Z" fill="#66757F"/>
</svg>
