<svg width="40" height="40" viewBox="0 0 40 40" fill="none" xmlns="http://www.w3.org/2000/svg">
<circle cx="20" cy="20" r="20" fill="#008A69"/>
<path d="M14.8617 15.6211C15.8279 15.6211 16.6755 15.8171 17.4047 16.209C18.1339 16.6009 18.699 17.1478 19.1 17.8496C19.5102 18.5514 19.7152 19.3763 19.7152 20.3242C19.7152 21.2266 19.5238 22.0469 19.141 22.7852C18.7582 23.5143 18.2113 24.0931 17.5004 24.5215C16.7895 24.9499 15.9418 25.1641 14.9574 25.1641C14.3285 25.1641 13.6996 25.1322 13.0707 25.0684C12.4509 25.0046 11.863 24.918 11.307 24.8086V15.9766C11.8721 15.8854 12.4509 15.8034 13.0434 15.7305C13.6358 15.6576 14.2419 15.6211 14.8617 15.6211ZM14.9027 17.3984C14.6293 17.3984 14.3422 17.4121 14.0414 17.4395C13.7406 17.4668 13.4626 17.5033 13.2074 17.5488V23.2363C13.4809 23.291 13.7634 23.332 14.0551 23.3594C14.3559 23.3776 14.6384 23.3867 14.9027 23.3867C15.5043 23.3867 16.0193 23.2591 16.4477 23.0039C16.876 22.7396 17.2042 22.3796 17.432 21.9238C17.6599 21.4681 17.7738 20.9577 17.7738 20.3926C17.7738 19.8092 17.6599 19.2943 17.432 18.8477C17.2042 18.401 16.876 18.0501 16.4477 17.7949C16.0193 17.5306 15.5043 17.3984 14.9027 17.3984ZM25.8977 15.7715L30.1633 25H27.9348L27.2375 23.291H23.6145L22.9172 25H20.6887L24.9543 15.7715H25.8977ZM25.4328 18.875L24.2844 21.6777H26.5813L25.4328 18.875Z" fill="white"/>
</svg>
