<svg width="12" height="18" viewBox="0 0 12 18" fill="none" xmlns="http://www.w3.org/2000/svg">
<path d="M5.99902 6C2.68552 6 -0.000976562 8.6865 -0.000976562 12C-0.000976562 15.3135 2.68552 18 5.99902 18C9.31252 18 11.999 15.3135 11.999 12C11.999 8.6865 9.31252 6 5.99902 6ZM5.99902 16C3.79002 16 1.99902 14.209 1.99902 12C1.99902 9.791 3.79002 8 5.99902 8C8.20802 8 9.99902 9.791 9.99902 12C9.99902 14.209 8.20802 16 5.99902 16Z" fill="#9AAAB4"/>
<path d="M11.499 2.5L9.49902 0H2.49902L0.499023 2.5L5.99902 7L11.499 2.5Z" fill="#5DADEC"/>
<path d="M11.499 2.5L9.49902 0H2.49902L0.499023 2.5H5.99902H11.499Z" fill="#8CCAF7"/>
<path d="M11.499 2.5L9.49902 0H5.99902V2.5H6.49902H11.499Z" fill="#5DADEC"/>
<path d="M5.99902 2.5H11.499L5.99902 7V2.5Z" fill="#8CCAF7"/>
<path d="M9.49902 6.5C9.49902 7.3285 8.82752 8 7.99902 8H3.99902C3.17052 8 2.49902 7.3285 2.49902 6.5C2.49902 5.6715 3.17052 5 3.99902 5H7.99902C8.82752 5 9.49902 5.6715 9.49902 6.5Z" fill="#9AAAB4"/>
</svg>
